<svg id="svg" version="1.1" xmlns="http://www.w3.org/2000/svg" xmlns:xlink="http://www.w3.org/1999/xlink" width="400" height="400" viewBox="0, 0, 400,400"><g id="svgg"><path id="path0" d="M196.553 54.916 C 146.682 60.954,108.251 97.042,100.019 145.564 C 98.924 152.022,98.732 279.759,99.816 280.843 C 100.718 281.744,156.861 281.760,157.430 280.859 C 157.659 280.497,157.819 256.186,157.849 217.188 C 157.876 182.490,157.950 153.574,158.012 152.930 C 158.250 150.490,159.192 146.597,160.312 143.423 C 166.035 127.200,181.256 114.179,198.498 110.757 C 200.076 110.443,201.982 110.061,202.734 109.907 C 203.486 109.753,219.827 109.562,239.046 109.482 C 263.139 109.381,274.147 109.206,274.495 108.917 C 275.206 108.327,275.241 55.476,274.531 54.766 C 273.810 54.045,202.616 54.182,196.553 54.916 M223.932 165.541 C 220.434 165.638,219.884 165.747,219.527 166.414 C 218.768 167.832,219.195 220.144,219.972 220.921 C 220.538 221.487,222.721 221.573,239.841 221.705 C 253.570 221.811,259.228 221.982,259.615 222.302 C 260.425 222.975,260.395 246.082,259.579 249.961 C 256.382 265.157,242.552 277.400,225.084 280.497 C 222.567 280.943,220.244 281.565,219.922 281.879 C 219.159 282.622,218.781 334.927,219.529 336.324 C 221.064 339.192,244.205 335.672,257.422 330.560 C 288.194 318.657,314.163 286.835,318.543 255.664 C 318.664 254.805,318.963 253.135,319.207 251.953 C 320.005 248.097,320.119 166.665,319.327 166.008 C 318.749 165.529,238.490 165.136,223.932 165.541 " stroke="none" fill="#1b2353" fill-rule="evenodd"></path><path id="path1" d="M0.000 200.000 L 0.000 400.000 200.000 400.000 L 400.000 400.000 400.000 200.000 L 400.000 0.000 200.000 0.000 L 0.000 0.000 0.000 200.000 M274.905 81.402 C 274.978 100.955,274.885 108.457,274.564 108.843 C 274.199 109.284,268.560 109.376,241.651 109.378 C 209.367 109.381,205.434 109.512,199.023 110.789 C 179.542 114.670,164.430 128.607,159.058 147.647 L 158.009 151.367 157.901 216.127 L 157.793 280.886 156.781 281.271 C 154.550 282.119,100.015 281.552,99.373 280.674 C 98.752 279.824,98.742 151.707,99.362 148.047 C 104.112 120.032,118.390 94.968,138.867 78.700 C 139.941 77.847,141.063 76.918,141.360 76.636 C 148.873 69.518,170.072 59.942,185.697 56.609 C 196.174 54.374,195.803 54.390,236.914 54.443 L 274.805 54.492 274.905 81.402 M319.453 165.703 C 320.212 166.462,320.103 246.086,319.335 251.486 C 313.483 292.657,282.464 326.605,242.942 335.093 C 239.149 335.908,238.208 336.064,233.203 336.708 C 228.909 337.261,220.186 337.218,219.609 336.641 C 218.915 335.946,218.934 282.853,219.629 281.906 C 219.956 281.461,221.277 281.053,223.633 280.669 C 242.687 277.569,257.502 264.340,259.728 248.438 C 260.246 244.732,260.275 223.608,259.763 222.651 C 259.357 221.893,258.904 221.875,240.273 221.875 C 221.568 221.875,221.179 221.859,220.170 221.065 L 219.141 220.256 219.141 193.353 L 219.141 166.451 220.009 165.842 C 221.159 165.037,318.651 164.901,319.453 165.703 " stroke="none" fill="#fbfbfb" fill-rule="evenodd"></path><path id="path2" d="" stroke="none" fill="#989cb5" fill-rule="evenodd"></path><path id="path3" d="M99.019 216.406 C 99.019 251.104,99.065 265.298,99.121 247.949 C 99.177 230.601,99.177 202.212,99.121 184.863 C 99.065 167.515,99.019 181.709,99.019 216.406 M222.766 165.522 C 223.793 165.603,225.375 165.602,226.281 165.520 C 227.188 165.438,226.348 165.372,224.414 165.373 C 222.480 165.374,221.739 165.441,222.766 165.522 M230.371 165.524 C 231.714 165.600,233.911 165.600,235.254 165.524 C 236.597 165.447,235.498 165.385,232.813 165.385 C 230.127 165.385,229.028 165.447,230.371 165.524 M239.746 165.522 C 240.874 165.601,242.720 165.601,243.848 165.522 C 244.976 165.443,244.053 165.379,241.797 165.379 C 239.541 165.379,238.618 165.443,239.746 165.522 M246.978 165.515 C 247.572 165.604,248.451 165.602,248.931 165.509 C 249.412 165.417,248.926 165.343,247.852 165.346 C 246.777 165.349,246.384 165.425,246.978 165.515 M250.884 165.515 C 251.478 165.604,252.357 165.602,252.837 165.509 C 253.318 165.417,252.832 165.343,251.758 165.346 C 250.684 165.349,250.291 165.425,250.884 165.515 M255.176 165.504 C 255.552 165.602,256.167 165.602,256.543 165.504 C 256.919 165.405,256.611 165.325,255.859 165.325 C 255.107 165.325,254.800 165.405,255.176 165.504 M259.473 165.523 C 260.708 165.601,262.729 165.601,263.965 165.523 C 265.200 165.446,264.189 165.382,261.719 165.382 C 259.248 165.382,258.237 165.446,259.473 165.523 M268.469 165.522 C 269.496 165.603,271.078 165.602,271.984 165.520 C 272.891 165.438,272.051 165.372,270.117 165.373 C 268.184 165.374,267.442 165.441,268.469 165.522 M277.637 165.510 C 278.120 165.603,278.911 165.603,279.395 165.510 C 279.878 165.417,279.482 165.341,278.516 165.341 C 277.549 165.341,277.153 165.417,277.637 165.510 M282.520 165.519 C 283.325 165.603,284.644 165.603,285.449 165.519 C 286.255 165.435,285.596 165.366,283.984 165.366 C 282.373 165.366,281.714 165.435,282.520 165.519 M294.048 165.511 C 294.533 165.604,295.237 165.601,295.610 165.503 C 295.983 165.405,295.586 165.329,294.727 165.333 C 293.867 165.337,293.562 165.417,294.048 165.511 M299.131 165.521 C 300.050 165.603,301.456 165.602,302.256 165.518 C 303.056 165.434,302.305 165.367,300.586 165.368 C 298.867 165.370,298.213 165.438,299.131 165.521 M306.362 165.523 C 307.605 165.601,309.539 165.601,310.659 165.522 C 311.779 165.443,310.762 165.380,308.398 165.380 C 306.035 165.381,305.119 165.446,306.362 165.523 M224.121 221.770 C 225.034 221.853,226.528 221.853,227.441 221.770 C 228.354 221.688,227.607 221.621,225.781 221.621 C 223.955 221.621,223.208 221.688,224.121 221.770 M230.181 221.765 C 230.775 221.854,231.654 221.852,232.134 221.759 C 232.615 221.667,232.129 221.593,231.055 221.596 C 229.980 221.599,229.587 221.675,230.181 221.765 M256.738 221.754 C 257.114 221.852,257.729 221.852,258.105 221.754 C 258.481 221.655,258.174 221.575,257.422 221.575 C 256.670 221.575,256.362 221.655,256.738 221.754 M219.247 284.766 C 219.247 285.732,219.323 286.128,219.416 285.645 C 219.509 285.161,219.509 284.370,219.416 283.887 C 219.323 283.403,219.247 283.799,219.247 284.766 " stroke="none" fill="#7c7c98" fill-rule="evenodd"></path><path id="path4" d="" stroke="none" fill="#84889c" fill-rule="evenodd"></path></g></svg>