<svg id="svg" version="1.1" xmlns="http://www.w3.org/2000/svg" xmlns:xlink="http://www.w3.org/1999/xlink" width="400" height="400" viewBox="0, 0, 400,400"><g id="svgg"><path id="path0" d="M187.402 43.652 C 186.167 43.727,185.156 43.943,185.156 44.130 C 185.156 44.318,184.233 44.393,183.105 44.297 C 181.970 44.201,181.270 44.267,181.536 44.444 C 181.832 44.641,181.455 44.773,180.560 44.786 C 179.758 44.798,178.574 44.901,177.930 45.016 C 177.285 45.130,176.264 45.243,175.661 45.268 C 174.949 45.297,174.660 45.468,174.837 45.756 C 175.027 46.063,174.734 46.143,173.884 46.019 C 173.209 45.919,172.656 46.003,172.656 46.203 C 172.656 46.404,172.399 46.469,172.084 46.349 C 171.343 46.064,167.188 46.933,167.188 47.373 C 167.188 47.558,166.814 47.590,166.357 47.445 C 165.784 47.263,165.613 47.320,165.804 47.630 C 165.999 47.946,165.754 48.007,164.974 47.836 C 164.084 47.641,163.982 47.682,164.453 48.047 C 164.924 48.412,164.822 48.453,163.932 48.258 C 163.152 48.087,162.907 48.148,163.102 48.464 C 163.296 48.777,163.115 48.828,162.500 48.633 C 161.845 48.425,161.699 48.480,161.926 48.848 C 162.149 49.208,162.003 49.282,161.389 49.122 C 160.926 49.000,160.547 49.079,160.547 49.297 C 160.547 49.515,160.283 49.592,159.961 49.468 C 159.639 49.344,159.375 49.434,159.375 49.667 C 159.375 49.900,159.023 49.999,158.594 49.887 C 158.164 49.774,157.813 49.852,157.813 50.060 C 157.813 50.267,157.637 50.328,157.422 50.195 C 157.207 50.063,157.031 50.138,157.031 50.363 C 157.031 50.588,156.724 50.735,156.348 50.690 C 155.403 50.577,152.344 51.607,152.344 52.038 C 152.344 52.232,152.168 52.281,151.953 52.148 C 151.738 52.016,151.563 52.112,151.563 52.362 C 151.563 52.613,151.299 52.717,150.977 52.593 C 150.654 52.469,150.391 52.549,150.391 52.770 C 150.391 52.990,150.215 53.062,150.000 52.930 C 149.785 52.797,149.609 52.869,149.609 53.090 C 149.609 53.310,149.346 53.390,149.023 53.266 C 148.701 53.143,148.438 53.246,148.438 53.497 C 148.438 53.747,148.276 53.852,148.078 53.730 C 147.881 53.608,147.441 53.786,147.102 54.126 C 146.762 54.465,146.484 54.630,146.484 54.492 C 146.484 54.354,146.198 54.527,145.848 54.877 C 145.498 55.227,144.971 55.421,144.676 55.308 C 144.382 55.195,144.141 55.251,144.141 55.432 C 144.141 55.613,143.652 55.859,143.055 55.979 C 142.458 56.098,141.470 56.658,140.860 57.224 C 140.250 57.789,139.499 58.155,139.191 58.036 C 138.883 57.918,138.726 57.975,138.842 58.162 C 139.053 58.505,136.779 59.642,136.230 59.468 C 136.069 59.417,135.938 59.580,135.938 59.831 C 135.938 60.081,135.835 60.184,135.710 60.059 C 135.584 59.933,135.138 60.174,134.719 60.594 C 134.299 61.013,133.805 61.263,133.620 61.149 C 133.436 61.035,133.180 61.216,133.052 61.550 C 132.923 61.885,132.668 62.066,132.484 61.952 C 132.300 61.839,131.771 62.098,131.309 62.529 C 130.517 63.267,130.274 63.203,130.455 62.305 C 130.498 62.090,130.390 62.058,130.213 62.235 C 130.037 62.411,129.891 62.762,129.888 63.016 C 129.885 63.269,129.755 63.525,129.599 63.583 C 129.442 63.642,128.870 64.135,128.326 64.678 C 127.782 65.222,127.171 65.564,126.967 65.438 C 126.763 65.312,126.306 65.653,125.951 66.195 C 125.596 66.737,125.167 67.095,124.998 66.991 C 124.829 66.887,124.588 67.070,124.462 67.399 C 124.258 67.929,124.112 67.925,123.152 67.355 C 122.557 67.003,122.349 66.953,122.691 67.244 C 123.547 67.975,123.315 68.401,120.999 70.355 C 119.891 71.289,119.146 71.793,119.344 71.476 C 119.927 70.541,119.891 69.958,119.265 70.199 C 118.825 70.367,118.801 70.493,119.166 70.719 C 119.496 70.923,118.762 71.890,116.829 73.796 C 114.421 76.171,112.627 77.187,113.545 75.657 C 113.705 75.390,113.545 75.420,113.165 75.728 C 112.804 76.021,112.597 76.404,112.706 76.580 C 112.815 76.755,112.722 77.011,112.500 77.148 C 112.278 77.286,112.186 77.542,112.295 77.719 C 112.404 77.895,111.792 78.674,110.934 79.449 C 110.077 80.223,109.375 81.023,109.375 81.226 C 109.375 81.429,109.172 81.720,108.924 81.873 C 108.621 82.060,108.577 81.972,108.789 81.603 C 108.963 81.302,108.557 81.565,107.887 82.189 C 107.217 82.812,106.784 83.516,106.925 83.751 C 107.066 83.987,106.880 83.935,106.511 83.636 C 105.931 83.165,105.872 83.173,106.072 83.694 C 106.341 84.394,104.768 86.033,104.177 85.668 C 103.950 85.528,103.907 85.623,104.076 85.896 C 104.300 86.258,104.516 86.260,105.015 85.906 C 105.372 85.652,105.137 85.954,104.492 86.575 C 103.848 87.197,103.281 87.838,103.232 88.000 C 102.995 88.794,101.267 90.980,101.049 90.762 C 100.912 90.625,100.675 90.846,100.522 91.253 C 100.164 92.204,99.145 92.967,98.637 92.664 C 98.420 92.534,98.501 92.746,98.817 93.135 C 99.337 93.776,99.281 93.934,98.231 94.816 C 97.592 95.351,97.334 95.669,97.656 95.522 C 98.028 95.352,97.992 95.459,97.559 95.815 C 97.183 96.123,96.875 96.512,96.875 96.680 C 96.875 96.847,96.567 97.236,96.191 97.544 C 95.815 97.853,95.746 97.982,96.037 97.832 C 96.398 97.646,96.353 97.884,95.894 98.585 C 95.525 99.148,95.057 99.609,94.854 99.609 C 94.651 99.609,94.594 99.785,94.727 100.000 C 94.859 100.215,94.782 100.391,94.554 100.391 C 94.327 100.391,94.161 100.522,94.187 100.684 C 94.310 101.462,94.101 101.975,93.750 101.758 C 93.399 101.541,93.190 102.053,93.313 102.832 C 93.339 102.993,93.173 103.125,92.946 103.125 C 92.718 103.125,92.629 103.282,92.748 103.475 C 92.867 103.667,92.690 103.929,92.356 104.058 C 92.021 104.186,91.857 104.468,91.990 104.685 C 92.124 104.901,92.037 105.078,91.797 105.078 C 91.557 105.078,91.460 105.240,91.582 105.437 C 91.704 105.635,91.526 106.074,91.187 106.414 C 90.847 106.753,90.697 107.031,90.853 107.031 C 91.009 107.031,90.819 107.383,90.430 107.813 C 90.041 108.242,89.850 108.594,90.006 108.594 C 90.162 108.594,90.012 108.872,89.673 109.211 C 89.333 109.551,89.155 109.990,89.277 110.188 C 89.399 110.385,89.303 110.547,89.063 110.547 C 88.822 110.547,88.725 110.707,88.845 110.902 C 89.156 111.404,88.661 112.540,88.245 112.282 C 88.055 112.165,87.993 112.313,88.108 112.612 C 88.223 112.911,88.056 113.373,87.736 113.638 C 87.417 113.903,87.252 114.370,87.370 114.677 C 87.487 114.984,87.379 115.234,87.128 115.234 C 86.878 115.234,86.781 115.410,86.914 115.625 C 87.047 115.840,86.975 116.016,86.754 116.016 C 86.533 116.016,86.465 116.308,86.602 116.666 C 86.770 117.103,86.702 117.223,86.395 117.033 C 85.954 116.761,85.750 117.471,85.917 118.692 C 85.957 118.982,85.804 119.104,85.577 118.964 C 85.327 118.809,85.256 118.947,85.398 119.316 C 85.529 119.658,85.424 119.922,85.156 119.922 C 84.895 119.922,84.779 120.174,84.897 120.483 C 85.016 120.791,84.952 121.099,84.755 121.166 C 84.558 121.234,84.318 121.729,84.220 122.266 C 84.122 122.803,84.007 123.286,83.965 123.340 C 83.922 123.394,83.865 123.599,83.838 123.796 C 83.811 123.993,83.669 124.273,83.523 124.420 C 83.377 124.566,83.352 124.932,83.467 125.234 C 83.583 125.535,83.471 125.781,83.219 125.781 C 82.938 125.781,82.856 126.084,83.008 126.563 C 83.156 127.028,83.078 127.344,82.816 127.344 C 82.574 127.344,82.497 127.539,82.644 127.778 C 82.792 128.017,82.679 128.357,82.394 128.533 C 82.108 128.709,81.875 129.481,81.875 130.247 C 81.875 131.014,81.716 131.641,81.521 131.641 C 81.326 131.641,81.265 131.899,81.386 132.214 C 81.507 132.529,81.424 132.900,81.201 133.038 C 80.978 133.176,80.898 133.694,81.022 134.190 C 81.154 134.715,81.059 135.155,80.794 135.243 C 80.534 135.330,80.339 136.176,80.339 137.212 C 80.339 138.312,80.186 138.934,79.951 138.789 C 79.716 138.643,79.657 138.903,79.801 139.455 C 79.931 139.953,79.870 140.674,79.665 141.058 C 79.303 141.734,79.007 143.963,78.582 149.219 C 78.469 150.615,78.364 182.459,78.349 219.982 C 78.332 260.556,78.177 288.118,77.967 287.988 C 77.773 287.868,77.725 287.949,77.860 288.169 C 77.995 288.388,78.576 288.477,79.150 288.368 C 79.807 288.242,80.102 288.317,79.947 288.568 C 79.779 288.841,89.149 288.975,109.192 288.988 C 125.412 288.999,138.599 288.871,138.496 288.703 C 138.393 288.536,138.697 288.191,139.173 287.936 L 140.039 287.472 139.996 218.639 C 139.972 179.039,140.101 149.616,140.301 149.360 C 140.492 149.116,140.674 147.929,140.705 146.724 C 140.737 145.518,140.892 144.531,141.050 144.531 C 141.208 144.531,141.287 144.224,141.227 143.848 C 141.166 143.472,141.284 142.952,141.490 142.693 C 141.696 142.434,141.751 142.038,141.612 141.814 C 141.474 141.590,141.567 141.406,141.819 141.406 C 142.086 141.406,142.193 141.079,142.074 140.625 C 141.962 140.195,142.041 139.844,142.250 139.844 C 142.460 139.844,142.519 139.492,142.383 139.063 C 142.244 138.624,142.313 138.281,142.540 138.281 C 142.762 138.281,142.843 138.018,142.719 137.695 C 142.596 137.373,142.684 137.109,142.915 137.109 C 143.146 137.109,143.223 136.817,143.085 136.459 C 142.931 136.057,142.992 135.906,143.245 136.062 C 143.607 136.286,144.338 134.307,144.193 133.496 C 144.164 133.335,144.327 133.203,144.554 133.203 C 144.782 133.203,144.859 133.027,144.727 132.813 C 144.594 132.598,144.682 132.422,144.922 132.422 C 145.162 132.422,145.250 132.246,145.117 132.031 C 144.984 131.816,145.043 131.641,145.248 131.641 C 145.452 131.641,145.724 131.368,145.852 131.034 C 145.984 130.691,145.920 130.530,145.703 130.664 C 145.487 130.798,145.422 130.638,145.553 130.296 C 145.681 129.964,145.930 129.781,146.107 129.891 C 146.449 130.102,147.054 128.701,147.217 127.321 C 147.244 127.093,147.469 127.032,147.717 127.186 C 147.995 127.358,148.062 127.293,147.891 127.017 C 147.578 126.510,149.664 123.282,150.692 122.683 C 151.064 122.466,151.225 122.284,151.050 122.278 C 150.876 122.271,151.315 121.715,152.027 121.042 C 152.738 120.369,153.057 119.959,152.734 120.131 C 152.412 120.303,153.944 118.654,156.138 116.467 C 158.332 114.280,160.266 112.529,160.435 112.576 C 160.604 112.623,161.331 112.099,162.051 111.411 C 162.772 110.722,163.500 110.245,163.671 110.351 C 163.841 110.456,164.086 110.269,164.214 109.934 C 164.343 109.599,164.626 109.436,164.844 109.570 C 165.062 109.705,165.345 109.541,165.473 109.207 C 165.602 108.872,165.864 108.695,166.057 108.814 C 166.249 108.933,166.406 108.834,166.406 108.594 C 166.406 108.354,166.582 108.266,166.797 108.398 C 167.012 108.531,167.188 108.458,167.188 108.236 C 167.188 107.729,169.346 106.585,169.677 106.917 C 169.812 107.051,169.922 106.946,169.922 106.683 C 169.922 106.419,170.098 106.313,170.313 106.445 C 170.527 106.578,170.703 106.490,170.703 106.250 C 170.703 106.010,170.865 105.913,171.062 106.035 C 171.260 106.157,171.678 106.000,171.992 105.686 C 172.306 105.372,172.640 105.192,172.734 105.286 C 172.827 105.379,174.123 104.936,175.612 104.301 C 177.102 103.666,178.628 103.141,179.004 103.136 C 179.380 103.130,179.688 102.955,179.688 102.747 C 179.688 102.539,179.951 102.469,180.273 102.593 C 180.596 102.717,180.859 102.629,180.859 102.398 C 180.859 102.167,181.105 102.072,181.406 102.187 C 181.706 102.303,182.064 102.217,182.200 101.997 C 182.336 101.777,182.705 101.696,183.020 101.817 C 183.336 101.938,183.594 101.823,183.594 101.562 C 183.594 101.254,183.928 101.171,184.546 101.326 C 185.070 101.458,185.610 101.386,185.745 101.167 C 185.881 100.948,186.163 100.874,186.372 101.004 C 186.582 101.133,186.992 101.041,187.284 100.798 C 187.582 100.552,188.263 100.469,188.830 100.611 C 189.436 100.764,189.844 100.702,189.844 100.458 C 189.844 100.177,201.840 100.073,228.466 100.123 C 259.087 100.180,267.049 100.095,266.902 99.710 C 266.800 99.444,266.997 99.118,267.340 98.986 C 267.683 98.854,267.875 98.601,267.765 98.424 C 267.655 98.246,267.744 97.990,267.962 97.856 C 268.680 97.412,268.494 45.448,267.773 45.171 C 267.451 45.048,267.188 44.696,267.188 44.390 C 267.188 44.084,266.905 43.725,266.560 43.593 C 265.920 43.347,191.481 43.402,187.402 43.652 M196.387 100.666 C 196.870 100.759,197.661 100.759,198.145 100.666 C 198.628 100.573,198.232 100.497,197.266 100.497 C 196.299 100.497,195.903 100.573,196.387 100.666 M213.770 100.660 C 214.146 100.758,214.761 100.758,215.137 100.660 C 215.513 100.562,215.205 100.481,214.453 100.481 C 213.701 100.481,213.394 100.562,213.770 100.660 M262.212 100.671 C 262.806 100.761,263.685 100.758,264.166 100.666 C 264.646 100.573,264.160 100.499,263.086 100.502 C 262.012 100.505,261.619 100.581,262.212 100.671 M209.848 163.392 C 209.073 164.354,208.944 166.571,208.942 178.954 C 208.937 199.098,208.927 202.890,208.856 210.449 C 208.813 214.982,208.931 217.580,209.180 217.584 C 209.419 217.588,209.410 217.701,209.156 217.877 C 208.737 218.167,208.570 219.983,208.985 219.726 C 209.108 219.650,209.418 220.058,209.673 220.634 C 210.121 221.643,211.101 221.987,213.379 221.935 C 213.982 221.921,214.609 221.916,217.480 221.897 C 248.858 221.688,255.008 221.971,254.015 223.577 C 253.889 223.781,253.992 223.821,254.244 223.666 C 254.531 223.488,254.891 223.832,255.209 224.588 C 255.488 225.252,255.847 225.663,256.007 225.503 C 256.168 225.343,256.136 225.647,255.936 226.180 C 255.737 226.713,255.688 227.466,255.827 227.855 C 255.967 228.243,255.981 229.737,255.858 231.175 C 255.735 232.613,255.645 236.470,255.658 239.746 C 255.670 243.022,255.549 245.703,255.389 245.703 C 255.229 245.703,255.203 246.230,255.332 246.875 C 255.488 247.653,255.410 248.047,255.101 248.047 C 254.813 248.047,254.729 248.345,254.883 248.828 C 255.027 249.282,254.953 249.609,254.706 249.609 C 254.449 249.609,254.378 249.993,254.527 250.586 C 254.675 251.175,254.605 251.563,254.351 251.563 C 254.120 251.563,254.032 251.826,254.156 252.148 C 254.279 252.471,254.202 252.734,253.985 252.734 C 253.767 252.734,253.688 253.113,253.809 253.577 C 253.974 254.209,253.900 254.339,253.511 254.099 C 253.134 253.866,253.060 253.956,253.242 254.428 C 253.379 254.786,253.310 255.078,253.090 255.078 C 252.869 255.078,252.789 255.241,252.912 255.439 C 253.190 255.890,252.344 257.813,251.867 257.813 C 251.674 257.813,251.625 257.988,251.758 258.203 C 251.891 258.418,251.803 258.594,251.563 258.594 C 251.322 258.594,251.234 258.770,251.367 258.984 C 251.500 259.199,251.412 259.375,251.172 259.375 C 250.932 259.375,250.844 259.551,250.977 259.766 C 251.109 259.980,251.044 260.156,250.831 260.156 C 250.618 260.156,250.318 260.552,250.166 261.035 C 249.860 262.004,248.560 263.284,247.889 263.277 C 247.194 263.269,227.602 263.652,226.855 263.688 C 226.479 263.706,226.172 263.897,226.172 264.113 C 226.172 264.329,225.820 264.394,225.391 264.258 C 224.925 264.110,224.609 264.188,224.609 264.450 C 224.609 264.692,224.434 264.781,224.219 264.648 C 224.004 264.516,223.828 264.604,223.828 264.844 C 223.828 265.084,223.652 265.172,223.438 265.039 C 223.223 264.906,223.047 264.984,223.047 265.211 C 223.047 265.439,222.915 265.588,222.754 265.542 C 222.226 265.392,217.946 270.081,218.143 270.594 C 218.249 270.869,218.146 271.094,217.915 271.094 C 217.684 271.094,217.596 271.357,217.719 271.680 C 217.843 272.002,217.779 272.266,217.578 272.266 C 217.377 272.266,217.314 272.532,217.439 272.857 C 217.563 273.182,217.486 273.665,217.266 273.931 C 217.020 274.229,216.908 276.880,216.974 280.859 C 217.130 290.175,216.811 291.639,214.746 291.093 C 214.585 291.050,214.453 291.210,214.453 291.448 C 214.453 291.686,214.189 291.779,213.867 291.656 C 213.545 291.532,213.281 291.596,213.281 291.797 C 213.281 291.998,213.018 292.062,212.695 291.938 C 212.373 291.814,212.109 291.918,212.109 292.169 C 212.109 292.419,211.934 292.516,211.719 292.383 C 211.504 292.250,211.328 292.357,211.328 292.620 C 211.328 292.884,211.214 292.985,211.074 292.845 C 210.934 292.705,210.569 292.895,210.264 293.268 C 209.932 293.671,209.829 293.708,210.007 293.359 C 210.255 292.873,210.203 292.857,209.701 293.263 C 209.064 293.779,209.075 293.062,208.975 341.555 C 208.940 358.257,208.202 356.659,216.016 356.810 C 222.243 356.931,232.979 356.332,233.139 355.855 C 233.211 355.640,233.438 355.568,233.643 355.694 C 234.133 355.998,239.514 355.097,240.118 354.610 C 240.376 354.402,240.948 354.347,241.388 354.486 C 241.842 354.631,242.188 354.566,242.188 354.335 C 242.188 354.113,242.453 354.033,242.778 354.158 C 243.103 354.282,243.612 354.183,243.909 353.936 C 244.206 353.690,244.599 353.515,244.783 353.548 C 244.967 353.581,245.205 353.575,245.313 353.536 C 245.420 353.496,246.123 353.386,246.875 353.292 C 247.627 353.198,248.506 353.008,248.828 352.869 C 249.150 352.730,249.660 352.567,249.960 352.506 C 251.727 352.149,253.906 351.342,253.906 351.045 C 253.906 350.854,254.170 350.799,254.492 350.923 C 254.814 351.046,255.078 350.977,255.078 350.769 C 255.078 350.561,255.210 350.420,255.371 350.456 C 256.043 350.607,258.594 349.884,258.594 349.543 C 258.594 349.339,258.770 349.281,258.984 349.414 C 259.199 349.547,259.375 349.507,259.375 349.325 C 259.375 349.143,259.760 348.965,260.230 348.930 C 260.701 348.895,261.593 348.490,262.214 348.031 C 262.835 347.572,263.439 347.293,263.557 347.411 C 263.675 347.529,264.320 347.332,264.991 346.974 C 265.662 346.617,266.343 346.360,266.504 346.404 C 266.665 346.448,266.797 346.298,266.797 346.071 C 266.797 345.843,266.973 345.766,267.188 345.898 C 267.402 346.031,267.578 345.943,267.578 345.703 C 267.578 345.463,267.754 345.375,267.969 345.508 C 268.184 345.641,268.359 345.574,268.359 345.360 C 268.359 345.134,268.930 345.064,269.723 345.192 C 270.505 345.319,271.317 345.223,271.626 344.967 C 272.018 344.641,278.504 344.531,295.509 344.562 C 314.656 344.596,318.914 344.510,319.187 344.079 C 319.370 343.791,319.522 343.708,319.525 343.895 C 319.529 344.083,319.767 344.041,320.055 343.801 C 320.344 343.562,320.724 343.496,320.899 343.656 C 321.075 343.815,321.124 343.770,321.008 343.555 C 320.892 343.340,321.424 342.755,322.191 342.254 C 323.300 341.530,323.476 341.490,323.055 342.059 C 322.764 342.452,323.126 342.165,323.860 341.421 C 324.595 340.677,325.208 339.973,325.223 339.858 C 325.308 339.223,326.349 337.500,326.648 337.500 C 326.841 337.500,326.891 337.324,326.758 337.109 C 326.625 336.895,326.697 336.719,326.918 336.719 C 327.139 336.719,327.218 336.455,327.094 336.133 C 326.971 335.811,327.020 335.547,327.204 335.546 C 327.779 335.545,328.154 328.245,327.846 323.047 C 327.814 322.510,327.874 319.376,327.980 316.083 C 328.126 311.500,328.051 309.948,327.660 309.465 C 327.227 308.931,327.238 308.885,327.734 309.162 C 328.201 309.423,328.225 309.386,327.850 308.982 C 327.532 308.638,327.501 308.249,327.754 307.776 C 328.004 307.309,327.984 306.990,327.694 306.811 C 327.391 306.623,327.419 306.445,327.787 306.217 C 328.182 305.973,328.202 305.780,327.867 305.445 C 327.563 305.141,327.534 304.607,327.774 303.769 C 328.206 302.263,328.173 284.299,327.738 284.568 C 327.567 284.674,327.557 284.187,327.715 283.486 C 327.873 282.785,327.933 281.864,327.849 281.438 C 327.516 279.754,327.533 279.089,327.918 278.815 C 328.176 278.631,328.180 278.525,327.930 278.521 C 327.699 278.517,327.545 277.154,327.555 275.195 C 327.563 273.369,327.413 271.875,327.220 271.875 C 327.027 271.875,326.971 271.611,327.094 271.289 C 327.218 270.967,327.177 270.703,327.004 270.703 C 326.830 270.703,326.719 270.191,326.756 269.566 C 326.810 268.657,326.680 268.457,326.109 268.567 C 325.617 268.662,325.319 268.407,325.155 267.751 C 325.023 267.226,324.779 266.797,324.612 266.797 C 324.445 266.797,324.006 266.336,323.637 265.772 C 323.268 265.209,323.160 264.867,323.397 265.014 C 323.682 265.190,323.855 264.710,323.907 263.597 C 323.951 262.672,324.068 261.211,324.168 260.352 C 324.899 254.053,324.583 164.704,323.828 164.175 C 323.391 163.869,323.137 163.452,323.263 163.248 C 323.633 162.649,210.330 162.792,209.848 163.392 M220.324 266.980 C 219.825 267.511,219.240 267.835,219.023 267.701 C 218.790 267.557,218.751 267.655,218.928 267.940 C 219.178 268.345,221.484 266.719,221.484 266.138 C 221.484 265.850,221.174 266.075,220.324 266.980 M239.160 269.427 C 238.247 269.509,236.753 269.509,235.840 269.427 C 234.927 269.344,235.674 269.277,237.500 269.277 C 239.326 269.277,240.073 269.344,239.160 269.427 M251.660 269.427 C 250.747 269.509,249.253 269.509,248.340 269.427 C 247.427 269.344,248.174 269.277,250.000 269.277 C 251.826 269.277,252.573 269.344,251.660 269.427 M264.355 269.410 C 263.979 269.508,263.364 269.508,262.988 269.410 C 262.612 269.312,262.920 269.231,263.672 269.231 C 264.424 269.231,264.731 269.312,264.355 269.410 M317.969 269.945 C 317.969 270.172,318.101 270.296,318.262 270.219 C 320.215 269.287,321.121 274.587,319.325 276.441 C 318.739 277.045,318.374 277.331,318.512 277.078 C 318.650 276.824,318.540 276.488,318.268 276.332 C 317.996 276.175,317.899 276.186,318.053 276.356 C 318.420 276.763,317.680 278.125,317.091 278.125 C 316.838 278.125,316.216 278.608,315.709 279.199 C 315.202 279.790,314.903 280.010,315.045 279.688 C 315.186 279.365,314.945 279.541,314.509 280.078 C 314.073 280.615,313.538 281.055,313.320 281.055 C 313.103 281.055,312.640 281.406,312.293 281.836 C 311.945 282.266,311.785 282.354,311.937 282.031 C 312.088 281.709,311.650 282.061,310.962 282.813 C 310.275 283.564,309.825 283.916,309.962 283.594 C 310.100 283.271,309.741 283.535,309.165 284.180 C 308.589 284.824,308.239 285.088,308.388 284.766 C 308.538 284.443,308.103 284.795,307.422 285.547 C 306.741 286.299,306.310 286.650,306.464 286.328 C 306.618 286.006,306.201 286.357,305.539 287.109 C 304.491 288.299,304.354 288.361,304.490 287.587 C 304.579 287.082,304.484 286.798,304.270 286.931 C 304.063 287.059,303.985 287.312,304.098 287.494 C 304.210 287.676,303.866 288.342,303.334 288.975 C 302.801 289.608,302.492 290.266,302.648 290.438 C 302.803 290.610,302.697 290.616,302.412 290.451 C 302.105 290.274,301.551 290.454,301.045 290.896 C 299.591 292.167,298.666 292.794,298.955 292.312 C 299.107 292.058,299.048 291.738,298.825 291.600 C 298.601 291.461,298.450 291.493,298.490 291.670 C 298.613 292.225,297.982 293.359,297.550 293.359 C 297.322 293.359,296.857 293.615,296.517 293.927 C 296.177 294.239,295.459 294.899,294.922 295.392 C 294.385 295.885,293.824 296.248,293.675 296.199 C 293.526 296.149,293.066 296.539,292.652 297.065 C 292.239 297.590,291.803 297.923,291.685 297.804 C 291.566 297.686,291.172 298.042,290.809 298.596 C 290.446 299.149,290.004 299.513,289.828 299.404 C 289.651 299.295,289.231 299.599,288.894 300.080 C 288.557 300.561,288.281 300.791,288.281 300.590 C 288.281 300.389,287.742 300.833,287.083 301.577 C 286.423 302.321,285.987 302.722,286.112 302.468 C 286.238 302.215,286.135 301.880,285.884 301.724 C 285.609 301.555,285.530 301.611,285.687 301.864 C 285.831 302.097,285.513 302.783,284.981 303.390 C 284.068 304.431,284.023 304.443,284.174 303.603 C 284.265 303.096,284.172 302.814,283.958 302.946 C 283.750 303.074,283.664 303.314,283.766 303.479 C 284.026 303.899,282.830 305.526,282.439 305.284 C 282.264 305.176,281.896 305.356,281.622 305.686 C 281.349 306.016,280.880 306.192,280.581 306.077 C 280.282 305.962,280.130 306.019,280.244 306.202 C 280.532 306.668,279.044 307.944,278.561 307.645 C 278.329 307.502,278.229 307.728,278.318 308.191 C 278.429 308.769,278.212 309.046,277.507 309.223 C 276.978 309.356,276.285 309.835,275.967 310.288 C 275.650 310.741,275.391 310.963,275.391 310.781 C 275.391 310.600,275.142 310.657,274.839 310.909 C 273.471 312.044,269.132 310.773,270.229 309.559 C 270.382 309.389,270.285 309.378,270.013 309.535 C 269.741 309.691,269.622 310.027,269.749 310.281 C 269.876 310.535,269.600 310.258,269.136 309.666 C 268.671 309.074,268.150 308.677,267.977 308.784 C 267.805 308.890,267.367 308.524,267.004 307.971 C 266.641 307.417,266.242 307.065,266.117 307.190 C 265.841 307.466,264.612 305.794,264.759 305.342 C 264.816 305.165,264.672 305.138,264.437 305.283 C 264.152 305.459,264.246 305.818,264.721 306.367 C 265.111 306.818,264.610 306.529,263.609 305.724 C 261.877 304.331,261.118 303.317,261.276 302.608 C 261.315 302.431,261.159 302.402,260.928 302.545 C 260.638 302.724,260.661 303.003,261.005 303.453 C 261.277 303.810,260.856 303.462,260.070 302.680 C 258.343 300.963,256.255 299.435,256.237 299.876 C 256.230 300.052,255.879 299.781,255.458 299.276 C 255.036 298.770,254.782 298.211,254.891 298.033 C 255.001 297.856,254.921 297.606,254.714 297.477 C 254.500 297.345,254.406 297.628,254.496 298.134 C 254.646 298.977,254.608 298.967,253.777 297.949 C 253.295 297.358,252.706 296.875,252.468 296.875 C 252.230 296.875,251.446 296.311,250.725 295.621 C 249.456 294.407,249.275 294.294,248.438 294.189 C 248.223 294.163,248.047 293.877,248.047 293.555 C 248.047 293.232,247.915 293.004,247.754 293.046 C 247.593 293.089,246.774 292.480,245.935 291.694 C 245.096 290.907,244.280 290.344,244.121 290.442 C 243.813 290.632,243.187 289.475,243.307 288.936 C 243.346 288.759,243.196 288.727,242.972 288.865 C 242.748 289.003,242.671 289.324,242.800 289.578 C 242.929 289.831,242.536 289.466,241.927 288.766 C 241.319 288.066,240.595 287.495,240.320 287.496 C 240.044 287.498,239.718 287.237,239.595 286.916 C 239.472 286.595,239.223 286.424,239.041 286.537 C 238.860 286.649,238.518 286.379,238.281 285.938 C 238.045 285.496,237.683 285.238,237.478 285.365 C 237.272 285.492,236.999 285.323,236.870 284.988 C 236.742 284.653,236.480 284.477,236.287 284.596 C 235.974 284.789,235.754 283.923,235.901 283.076 C 235.932 282.899,235.774 282.868,235.550 283.006 C 235.327 283.144,235.248 283.465,235.375 283.718 C 235.502 283.972,235.241 283.765,234.795 283.258 C 234.349 282.750,233.980 282.487,233.976 282.672 C 233.971 282.857,233.604 282.568,233.161 282.031 C 232.717 281.494,232.482 281.298,232.639 281.596 C 233.084 282.440,230.529 280.424,229.859 279.402 C 229.505 278.860,229.072 278.605,228.791 278.773 C 228.511 278.941,228.541 278.784,228.864 278.386 C 229.335 277.806,229.327 277.747,228.806 277.947 C 228.475 278.074,228.086 277.988,227.942 277.755 C 227.798 277.522,227.536 277.420,227.359 277.529 C 227.183 277.638,226.748 277.284,226.393 276.742 C 226.005 276.150,225.559 275.869,225.276 276.039 C 224.996 276.207,225.025 276.050,225.348 275.652 C 225.822 275.068,225.811 275.013,225.267 275.222 C 223.901 275.746,224.144 271.510,225.546 270.345 C 225.900 270.052,239.843 269.895,271.718 269.824 C 296.834 269.769,317.515 269.680,317.676 269.627 C 317.837 269.574,317.969 269.717,317.969 269.945 M321.473 283.405 C 322.170 282.975,322.250 285.929,322.162 308.659 C 322.069 332.650,322.030 333.351,320.833 332.380 C 320.389 332.020,320.262 332.001,320.456 332.324 C 321.375 333.855,319.406 332.299,315.882 328.709 C 313.666 326.452,311.720 324.739,311.558 324.901 C 311.396 325.063,311.322 324.932,311.393 324.609 C 311.465 324.287,311.324 324.061,311.080 324.106 C 310.837 324.151,309.606 323.100,308.346 321.770 C 307.086 320.440,305.879 319.340,305.664 319.326 C 305.449 319.312,305.309 319.115,305.352 318.888 C 305.395 318.661,304.837 317.901,304.113 317.198 C 303.388 316.496,302.865 315.723,302.950 315.480 C 303.034 315.238,302.625 314.702,302.040 314.289 L 300.977 313.539 301.924 314.582 C 304.326 317.228,301.470 315.329,298.633 312.394 C 296.914 310.616,295.068 308.850,294.531 308.469 C 293.994 308.088,293.818 307.903,294.141 308.057 C 294.578 308.266,294.553 308.139,294.042 307.555 C 293.666 307.125,293.490 306.640,293.651 306.479 C 293.813 306.317,293.682 306.243,293.359 306.315 C 292.538 306.498,292.780 304.698,293.659 304.082 C 294.479 303.508,295.157 303.454,295.010 303.974 C 294.951 304.184,295.086 304.242,295.309 304.104 C 295.533 303.965,295.623 303.701,295.509 303.517 C 295.395 303.332,295.757 302.685,296.315 302.079 C 296.873 301.473,297.224 301.184,297.095 301.438 C 296.967 301.692,297.085 302.027,297.357 302.184 C 297.629 302.341,297.725 302.329,297.570 302.158 C 297.119 301.658,298.833 299.568,300.156 299.005 C 300.822 298.721,301.982 297.911,302.734 297.204 C 303.486 296.498,304.248 295.915,304.426 295.909 C 304.604 295.903,304.975 295.591,305.250 295.215 C 305.525 294.839,305.944 294.531,306.182 294.531 C 306.419 294.531,306.801 294.180,307.031 293.750 C 307.261 293.320,307.705 292.969,308.018 292.969 C 308.331 292.969,308.807 292.617,309.075 292.188 C 309.343 291.758,309.717 291.406,309.906 291.406 C 310.302 291.406,312.887 289.203,312.728 289.002 C 312.669 288.928,313.253 288.345,314.026 287.706 C 314.883 286.997,315.201 286.852,314.844 287.334 C 314.402 287.929,314.465 287.909,315.097 287.251 C 315.558 286.771,316.029 286.472,316.144 286.586 C 316.258 286.701,316.582 286.426,316.864 285.976 C 317.145 285.525,317.593 285.156,317.858 285.156 C 318.124 285.156,318.631 284.714,318.986 284.173 C 319.504 283.382,319.739 283.280,320.189 283.653 C 320.496 283.908,320.716 283.955,320.679 283.758 C 320.553 283.094,320.763 282.612,320.963 283.108 C 321.071 283.378,321.301 283.512,321.473 283.405 M225.572 283.969 C 225.953 284.390,226.376 284.704,226.511 284.667 C 227.025 284.527,230.045 287.629,229.797 288.043 C 229.654 288.281,229.823 288.245,230.171 287.963 C 230.798 287.455,231.972 288.601,231.406 289.167 C 231.291 289.281,231.376 289.485,231.594 289.620 C 231.829 289.765,231.926 289.531,231.832 289.043 C 231.709 288.403,232.019 288.577,233.234 289.828 C 234.091 290.712,234.947 291.340,235.136 291.224 C 235.324 291.107,235.859 291.496,236.323 292.088 C 236.787 292.680,237.051 292.900,236.909 292.578 C 236.767 292.256,237.008 292.432,237.444 292.969 C 237.880 293.506,238.378 293.960,238.552 293.979 C 239.400 294.070,240.202 294.658,239.976 295.023 C 239.832 295.257,239.910 295.318,240.157 295.165 C 240.396 295.017,240.870 295.324,241.214 295.849 C 241.557 296.372,242.234 296.900,242.718 297.021 C 243.875 297.312,247.337 300.740,247.009 301.270 C 246.859 301.515,246.941 301.568,247.212 301.401 C 247.463 301.245,247.559 300.910,247.424 300.657 C 247.290 300.403,247.651 300.723,248.228 301.367 C 248.804 302.012,249.167 302.275,249.034 301.953 C 248.901 301.631,249.085 301.763,249.444 302.246 C 249.802 302.729,250.329 303.125,250.614 303.125 C 250.900 303.125,251.312 303.433,251.531 303.809 C 251.750 304.185,251.935 304.339,251.941 304.151 C 251.962 303.569,253.125 304.750,253.125 305.353 C 253.125 306.132,250.426 309.371,249.865 309.265 C 249.617 309.218,249.458 309.399,249.512 309.668 C 249.565 309.937,249.431 310.112,249.212 310.059 C 248.994 310.005,247.389 311.455,245.646 313.281 C 243.902 315.107,242.788 316.162,243.170 315.625 C 243.552 315.088,242.328 316.230,240.450 318.164 C 238.572 320.098,237.151 321.460,237.291 321.191 C 237.681 320.444,237.313 320.609,236.486 321.552 C 236.077 322.018,235.989 322.255,236.291 322.077 C 236.664 321.858,236.749 321.901,236.557 322.212 C 236.401 322.463,236.141 322.587,235.979 322.487 C 235.817 322.386,234.383 323.614,232.793 325.215 C 230.029 327.998,228.126 329.299,230.108 327.051 L 231.055 325.977 229.985 326.919 C 229.100 327.699,228.999 327.964,229.399 328.459 C 229.665 328.787,229.692 328.942,229.459 328.803 C 229.227 328.664,228.032 329.597,226.805 330.876 C 222.854 334.998,223.166 336.876,223.095 308.594 C 223.027 281.589,223.066 281.200,225.572 283.969 M86.612 289.735 C 87.306 289.821,88.536 289.823,89.347 289.738 C 90.157 289.654,89.590 289.583,88.086 289.581 C 86.582 289.580,85.919 289.649,86.612 289.735 M92.862 289.735 C 93.556 289.821,94.786 289.823,95.597 289.738 C 96.407 289.654,95.840 289.583,94.336 289.581 C 92.832 289.580,92.169 289.649,92.862 289.735 M101.079 289.729 C 101.565 289.823,102.268 289.819,102.641 289.722 C 103.015 289.624,102.617 289.547,101.758 289.552 C 100.898 289.556,100.593 289.636,101.079 289.729 M106.543 289.744 C 108.315 289.816,111.216 289.816,112.988 289.744 C 114.761 289.671,113.311 289.612,109.766 289.612 C 106.221 289.612,104.771 289.671,106.543 289.744 M118.078 289.741 C 119.105 289.821,120.687 289.820,121.594 289.739 C 122.500 289.657,121.660 289.591,119.727 289.592 C 117.793 289.593,117.051 289.660,118.078 289.741 M126.275 289.733 C 126.869 289.823,127.748 289.821,128.228 289.728 C 128.708 289.635,128.223 289.562,127.148 289.565 C 126.074 289.568,125.681 289.644,126.275 289.733 M136.035 289.722 C 136.411 289.821,137.026 289.821,137.402 289.722 C 137.778 289.624,137.471 289.544,136.719 289.544 C 135.967 289.544,135.659 289.624,136.035 289.722 M95.215 290.510 C 95.698 290.603,96.489 290.603,96.973 290.510 C 97.456 290.417,97.061 290.341,96.094 290.341 C 95.127 290.341,94.731 290.417,95.215 290.510 M259.937 310.383 C 260.276 310.723,260.437 311.189,260.295 311.420 C 260.140 311.671,260.220 311.726,260.493 311.557 C 260.744 311.401,260.846 311.067,260.719 310.813 C 260.592 310.559,260.852 310.767,261.298 311.274 C 261.744 311.781,262.109 312.062,262.109 311.899 C 262.109 311.736,262.644 312.162,263.297 312.845 C 263.950 313.528,264.362 314.285,264.213 314.526 C 264.046 314.795,264.118 314.855,264.399 314.682 C 264.651 314.526,264.752 314.192,264.625 313.938 C 264.498 313.684,264.778 313.916,265.249 314.453 C 265.719 314.990,266.266 315.430,266.465 315.430 C 266.981 315.430,267.569 316.495,267.297 316.936 C 267.170 317.141,267.273 317.181,267.524 317.026 C 267.776 316.870,267.882 316.581,267.760 316.384 C 267.637 316.186,267.809 316.129,268.142 316.256 C 268.474 316.384,268.630 316.675,268.488 316.904 C 268.327 317.165,268.474 317.227,268.881 317.071 C 269.239 316.934,269.531 316.975,269.531 317.163 C 269.531 317.351,269.883 317.413,270.313 317.301 C 270.742 317.188,271.094 317.283,271.094 317.510 C 271.094 317.748,271.923 317.918,273.047 317.909 C 274.121 317.901,275.000 317.716,275.000 317.499 C 275.000 317.282,275.264 317.205,275.586 317.329 C 275.908 317.452,276.172 317.389,276.172 317.188 C 276.172 316.986,276.464 316.934,276.822 317.071 C 277.259 317.239,277.379 317.171,277.189 316.863 C 276.939 316.459,277.384 316.235,278.202 316.353 C 278.352 316.375,279.096 315.807,279.855 315.090 C 280.615 314.374,281.307 313.859,281.394 313.946 C 281.481 314.033,281.900 313.661,282.325 313.120 C 282.751 312.579,283.191 312.228,283.304 312.340 C 283.416 312.453,283.898 311.997,284.375 311.328 C 284.852 310.659,285.338 310.208,285.456 310.326 C 285.574 310.444,285.916 310.336,286.216 310.087 C 286.653 309.725,287.272 310.133,289.333 312.142 C 290.748 313.520,291.781 314.385,291.630 314.063 C 291.479 313.740,293.052 315.234,295.125 317.383 C 297.199 319.531,299.100 321.289,299.350 321.289 C 299.600 321.289,299.827 321.509,299.854 321.777 C 299.880 322.046,299.945 322.397,299.997 322.559 C 300.050 322.720,300.079 322.962,300.062 323.098 C 300.045 323.234,300.420 323.673,300.894 324.075 L 301.758 324.805 301.014 323.926 C 299.506 322.145,301.378 323.007,303.134 324.902 C 304.080 325.923,305.006 326.710,305.191 326.650 C 305.375 326.591,305.431 326.698,305.315 326.887 C 305.198 327.076,305.565 327.651,306.130 328.166 C 306.695 328.681,307.022 328.838,306.858 328.516 C 306.693 328.193,308.044 329.446,309.861 331.300 C 311.678 333.154,313.617 334.967,314.170 335.330 C 314.723 335.692,315.356 336.505,315.575 337.135 L 315.975 338.281 298.320 338.304 C 280.406 338.327,261.176 338.508,244.531 338.811 C 234.766 338.988,229.190 338.770,229.527 338.224 C 229.641 338.041,229.552 337.891,229.329 337.891 C 229.107 337.891,230.369 336.412,232.134 334.605 C 234.874 331.799,237.054 330.331,235.468 332.359 C 235.013 332.941,235.032 332.952,235.654 332.464 C 236.035 332.165,236.253 331.826,236.139 331.712 C 236.024 331.597,236.327 331.052,236.813 330.501 L 237.695 329.498 236.719 330.276 L 235.742 331.055 236.478 330.185 C 236.883 329.707,237.347 329.398,237.510 329.498 C 237.673 329.599,239.081 328.282,240.640 326.572 C 242.199 324.862,243.601 323.541,243.756 323.636 C 243.910 323.732,245.307 322.408,246.860 320.694 C 249.232 318.075,251.091 316.822,250.139 318.484 C 249.994 318.738,250.005 318.828,250.165 318.685 C 250.325 318.542,250.397 318.330,250.326 318.215 C 250.254 318.100,250.898 317.259,251.758 316.346 C 252.617 315.433,252.969 314.926,252.539 315.219 C 252.109 315.513,252.549 315.023,253.516 314.131 C 254.624 313.109,255.540 312.570,255.996 312.674 C 256.393 312.764,256.611 312.731,256.480 312.600 C 256.350 312.470,256.640 311.911,257.125 311.360 L 258.008 310.357 257.031 311.136 L 256.055 311.914 256.790 311.044 C 257.195 310.566,257.666 310.261,257.838 310.367 C 258.009 310.473,258.260 310.381,258.394 310.163 C 258.742 309.601,259.223 309.669,259.937 310.383 M309.505 322.067 C 309.505 322.389,309.798 322.918,310.156 323.242 C 310.734 323.765,310.807 323.765,310.807 323.245 C 310.807 322.923,310.514 322.394,310.156 322.070 C 309.579 321.548,309.505 321.548,309.505 322.067 M242.969 324.414 C 242.701 324.736,242.613 325.000,242.773 325.000 C 242.933 325.000,242.826 325.308,242.535 325.684 C 242.033 326.332,242.047 326.332,242.813 325.682 C 243.257 325.305,243.620 324.734,243.620 324.412 C 243.620 323.687,243.572 323.687,242.969 324.414 M282.525 346.765 C 283.119 346.854,283.998 346.852,284.478 346.759 C 284.958 346.667,284.473 346.593,283.398 346.596 C 282.324 346.599,281.931 346.675,282.525 346.765 " stroke="none" fill="#23235f" fill-rule="evenodd"></path><path id="path1" d="M200.135 42.676 C 200.035 42.837,214.511 42.969,232.304 42.969 C 251.859 42.969,265.172 43.117,265.964 43.345 C 268.452 44.058,268.324 42.597,268.442 71.680 L 268.549 98.242 268.660 72.070 C 268.780 43.622,268.820 44.460,267.296 43.462 C 266.184 42.733,200.574 41.965,200.135 42.676 M187.890 43.066 C 187.890 43.228,189.868 43.330,192.285 43.294 C 196.795 43.226,196.268 43.067,190.917 42.879 C 189.252 42.821,187.889 42.905,187.890 43.066 M185.063 43.636 C 185.549 43.729,186.252 43.726,186.626 43.628 C 186.999 43.530,186.602 43.454,185.742 43.458 C 184.883 43.462,184.577 43.542,185.063 43.636 M164.648 47.266 C 163.653 47.693,164.680 47.693,166.016 47.266 C 166.801 47.014,166.839 46.951,166.211 46.941 C 165.781 46.935,165.078 47.081,164.648 47.266 M161.914 48.047 C 161.422 48.258,161.349 48.383,161.719 48.383 C 162.041 48.383,162.656 48.232,163.086 48.047 C 163.578 47.835,163.651 47.711,163.281 47.711 C 162.959 47.711,162.344 47.862,161.914 48.047 M151.974 50.907 C 152.485 51.471,152.779 51.506,153.849 51.133 C 154.547 50.890,155.046 50.618,154.957 50.530 C 154.868 50.441,154.311 50.553,153.718 50.779 C 152.926 51.080,152.470 51.062,152.003 50.713 C 151.425 50.281,151.422 50.298,151.974 50.907 M145.596 54.135 C 145.000 54.458,144.297 54.601,144.034 54.452 C 143.673 54.249,143.664 54.301,143.998 54.663 C 144.345 55.040,144.764 54.973,145.951 54.347 C 146.781 53.909,147.285 53.549,147.070 53.549 C 146.855 53.548,146.192 53.811,145.596 54.135 M137.012 58.427 C 135.551 59.219,135.640 59.549,137.109 58.789 C 137.754 58.456,138.281 58.100,138.281 57.998 C 138.281 57.746,138.239 57.761,137.012 58.427 M134.378 59.942 C 133.646 60.347,133.323 60.368,133.078 60.026 C 132.858 59.717,132.805 59.759,132.915 60.156 C 133.004 60.479,132.797 60.977,132.456 61.264 C 132.115 61.551,132.539 61.391,133.398 60.909 C 134.909 60.060,135.890 59.360,135.527 59.389 C 135.431 59.396,134.913 59.645,134.378 59.942 M128.488 63.716 C 113.994 73.692,100.244 88.563,92.503 102.637 C 91.646 104.194,90.756 105.469,90.525 105.469 C 90.293 105.469,90.214 105.578,90.348 105.712 C 90.482 105.846,90.247 106.630,89.827 107.455 C 88.058 110.923,89.261 109.211,91.635 104.883 C 100.957 87.886,113.368 74.455,130.871 62.423 C 131.402 62.058,131.735 61.751,131.613 61.739 C 131.490 61.728,130.083 62.617,128.488 63.716 M213.379 100.293 C 223.208 100.351,239.292 100.351,249.121 100.293 C 258.950 100.235,250.908 100.187,231.250 100.187 C 211.592 100.187,203.550 100.235,213.379 100.293 M191.704 100.667 C 192.190 100.760,192.893 100.757,193.266 100.659 C 193.640 100.561,193.242 100.485,192.383 100.489 C 191.523 100.493,191.218 100.573,191.704 100.667 M188.770 101.051 C 189.146 101.149,189.761 101.149,190.137 101.051 C 190.513 100.952,190.205 100.872,189.453 100.872 C 188.701 100.872,188.394 100.952,188.770 101.051 M185.156 101.563 C 183.843 101.983,185.262 101.983,186.914 101.563 C 187.967 101.295,187.987 101.264,187.109 101.257 C 186.572 101.253,185.693 101.390,185.156 101.563 M181.836 102.344 C 180.841 102.771,181.868 102.771,183.203 102.344 C 183.988 102.092,184.026 102.029,183.398 102.020 C 182.969 102.013,182.266 102.159,181.836 102.344 M177.539 103.697 C 176.030 104.388,176.732 104.398,178.516 103.711 C 179.268 103.421,179.619 103.179,179.297 103.172 C 178.975 103.166,178.184 103.402,177.539 103.697 M172.656 105.664 C 172.119 105.971,171.855 106.222,172.070 106.222 C 172.285 106.222,172.900 105.971,173.438 105.664 C 173.975 105.357,174.238 105.106,174.023 105.106 C 173.809 105.106,173.193 105.357,172.656 105.664 M168.359 107.854 C 160.060 112.367,151.734 120.370,147.882 127.539 C 146.696 129.746,147.034 129.311,149.748 125.131 C 153.549 119.275,160.912 112.468,167.398 108.812 C 170.923 106.825,171.764 106.303,171.484 106.278 C 171.377 106.269,169.971 106.978,168.359 107.854 M87.500 112.158 C 87.500 112.257,86.797 114.059,85.938 116.163 C 85.078 118.267,84.381 120.193,84.388 120.443 C 84.395 120.694,85.182 118.975,86.135 116.623 C 87.089 114.272,87.786 112.265,87.685 112.164 C 87.583 112.062,87.500 112.060,87.500 112.158 M83.246 123.491 C 82.793 124.834,82.435 126.119,82.451 126.345 C 82.467 126.572,82.905 125.541,83.425 124.053 C 83.944 122.566,84.302 121.281,84.220 121.199 C 84.138 121.117,83.700 122.149,83.246 123.491 M145.684 131.288 C 145.235 132.168,144.934 132.955,145.016 133.037 C 145.098 133.119,145.548 132.399,146.015 131.437 C 147.080 129.246,146.792 129.116,145.684 131.288 M80.293 134.395 C 79.918 136.132,79.690 137.632,79.786 137.729 C 79.883 137.826,80.269 136.483,80.645 134.746 C 81.020 133.009,81.248 131.508,81.151 131.412 C 81.055 131.315,80.668 132.657,80.293 134.395 M143.356 136.924 C 142.997 138.013,142.993 138.461,143.340 138.805 C 143.687 139.149,143.740 139.110,143.562 138.642 C 143.433 138.303,143.515 137.531,143.745 136.927 C 143.975 136.323,144.087 135.754,143.995 135.662 C 143.903 135.570,143.616 136.138,143.356 136.924 M142.411 140.067 C 142.267 140.639,142.225 141.183,142.317 141.275 C 142.409 141.367,142.602 140.974,142.746 140.402 C 142.889 139.829,142.931 139.286,142.839 139.194 C 142.747 139.101,142.554 139.494,142.411 140.067 M141.406 144.336 C 141.139 145.752,141.000 146.989,141.096 147.086 C 141.193 147.182,141.486 146.099,141.748 144.678 C 142.010 143.257,142.149 142.019,142.058 141.928 C 141.967 141.836,141.673 142.920,141.406 144.336 M78.614 144.727 C 78.618 145.586,78.698 145.892,78.792 145.406 C 78.885 144.920,78.882 144.217,78.784 143.843 C 78.686 143.470,78.610 143.867,78.614 144.727 M78.224 147.852 C 78.228 148.711,78.308 149.017,78.401 148.531 C 78.495 148.045,78.491 147.342,78.393 146.968 C 78.296 146.595,78.219 146.992,78.224 147.852 M77.570 155.490 C 77.292 160.230,77.254 186.369,77.429 251.563 C 77.494 275.796,77.585 265.728,77.726 218.750 C 77.838 181.475,77.911 150.928,77.888 150.870 C 77.865 150.811,77.722 152.890,77.570 155.490 M140.425 219.336 C 140.425 256.934,140.471 272.257,140.527 253.387 C 140.583 234.517,140.583 203.756,140.527 185.028 C 140.471 166.300,140.425 181.738,140.425 219.336 M247.852 162.112 C 213.191 162.306,213.672 162.313,267.155 162.405 C 297.323 162.457,321.912 162.407,321.799 162.294 C 321.482 161.977,287.232 161.893,247.852 162.112 M209.013 163.529 C 207.746 165.140,207.737 219.689,209.004 221.148 L 209.804 222.070 209.199 220.820 C 208.112 218.574,208.303 164.928,209.403 163.529 C 209.849 162.963,210.125 162.500,210.018 162.500 C 209.910 162.500,209.458 162.963,209.013 163.529 M323.758 163.402 L 324.606 164.305 324.707 211.352 L 324.808 258.398 324.904 211.304 C 325.008 160.339,325.085 162.500,323.159 162.500 C 323.022 162.500,323.292 162.906,323.758 163.402 M210.742 222.230 C 211.203 222.449,220.022 222.613,232.237 222.629 C 250.417 222.653,253.069 222.732,253.917 223.273 L 254.883 223.891 253.961 223.078 C 253.052 222.277,252.743 222.266,232.476 222.260 C 221.167 222.257,211.475 222.166,210.938 222.057 C 210.086 221.884,210.061 221.907,210.742 222.230 M255.051 235.742 C 254.787 248.727,254.248 251.526,250.613 258.789 C 249.431 261.152,248.801 262.646,249.213 262.109 C 253.635 256.353,255.571 247.545,255.394 233.984 L 255.273 224.805 255.051 235.742 M324.336 260.547 C 324.336 261.729,324.409 262.212,324.499 261.621 C 324.588 261.030,324.588 260.063,324.499 259.473 C 324.409 258.882,324.336 259.365,324.336 260.547 M232.887 263.182 C 235.614 263.249,240.184 263.250,243.043 263.183 C 245.903 263.116,243.672 263.061,238.086 263.061 C 232.500 263.061,230.161 263.115,232.887 263.182 M223.047 264.493 C 220.383 266.086,216.576 270.612,217.294 271.331 C 217.383 271.420,217.766 270.805,218.145 269.964 C 219.044 267.970,221.301 265.795,223.681 264.629 C 224.729 264.116,225.322 263.691,225.000 263.686 C 224.678 263.680,223.799 264.043,223.047 264.493 M324.233 265.746 C 324.225 265.919,324.771 266.749,325.447 267.590 C 326.122 268.430,326.995 270.046,327.387 271.180 C 327.779 272.314,328.104 272.891,328.108 272.461 C 328.125 270.991,324.295 264.353,324.233 265.746 M225.906 270.932 L 224.805 271.951 225.932 271.132 L 227.058 270.313 272.149 270.313 C 318.676 270.313,318.237 270.298,319.421 271.841 C 321.125 274.060,320.606 274.669,310.277 282.584 C 306.155 285.744,302.024 289.030,301.098 289.887 C 300.172 290.745,301.963 289.456,305.078 287.023 C 308.193 284.591,312.324 281.390,314.258 279.911 C 320.789 274.913,321.505 273.696,319.370 271.213 L 318.427 270.117 272.717 270.015 L 227.008 269.912 225.906 270.932 M216.572 281.445 C 216.572 285.957,216.629 287.749,216.698 285.428 C 216.767 283.107,216.767 279.415,216.697 277.225 C 216.628 275.034,216.571 276.934,216.572 281.445 M328.311 304.297 C 328.311 320.518,328.359 327.153,328.418 319.043 C 328.477 310.933,328.477 297.661,328.418 289.551 C 328.359 281.440,328.311 288.076,328.311 304.297 M228.125 277.622 C 228.125 277.795,228.477 278.157,228.907 278.425 C 229.336 278.694,232.692 281.241,236.363 284.086 C 243.749 289.809,245.403 291.041,244.531 290.167 C 242.770 288.402,228.125 277.203,228.125 277.622 M308.789 292.608 C 302.559 297.564,297.109 301.979,296.680 302.419 C 296.250 302.860,297.982 301.572,300.528 299.559 C 303.074 297.546,305.623 295.549,306.192 295.121 C 307.880 293.852,319.287 284.711,319.908 284.129 C 321.804 282.354,318.826 284.625,308.789 292.608 M225.781 284.505 C 225.781 284.612,226.484 285.257,227.344 285.938 C 228.203 286.618,228.906 287.087,228.906 286.980 C 228.906 286.872,228.203 286.228,227.344 285.547 C 226.484 284.866,225.781 284.397,225.781 284.505 M223.621 308.789 C 223.621 321.895,223.670 327.199,223.730 320.577 C 223.790 313.955,223.790 303.233,223.730 296.749 C 223.670 290.266,223.621 295.684,223.621 308.789 M321.004 302.637 C 320.946 312.251,320.993 322.754,321.110 325.977 C 321.226 329.199,321.358 321.333,321.403 308.496 C 321.448 295.659,321.400 285.156,321.297 285.156 C 321.194 285.156,321.062 293.022,321.004 302.637 M229.297 287.278 C 229.297 287.390,230.166 288.169,231.229 289.009 C 232.292 289.849,233.039 290.659,232.889 290.809 C 232.740 290.958,232.793 291.029,233.008 290.965 C 233.715 290.756,235.194 291.811,234.885 292.305 C 234.390 293.097,234.437 293.620,235.005 293.620 C 235.670 293.620,235.722 293.092,235.078 292.878 C 234.782 292.779,234.754 292.631,235.003 292.477 C 235.220 292.343,236.793 293.311,238.499 294.627 C 240.206 295.943,243.834 298.725,246.563 300.808 C 249.291 302.891,251.445 304.675,251.348 304.772 C 251.251 304.869,251.444 304.948,251.776 304.948 C 252.564 304.948,252.567 304.950,246.094 299.993 C 243.193 297.772,239.766 295.141,238.477 294.146 C 230.770 288.197,229.297 287.095,229.297 287.278 M139.281 288.489 C 138.378 289.172,80.599 289.369,79.336 288.693 C 78.827 288.420,78.646 288.469,78.646 288.879 C 78.646 289.902,138.270 289.716,139.502 288.689 C 140.576 287.795,140.405 287.639,139.281 288.489 M245.313 290.767 C 245.313 290.868,246.851 292.142,248.730 293.598 C 250.610 295.054,252.939 296.871,253.906 297.635 C 254.873 298.398,255.423 298.716,255.128 298.340 C 254.540 297.590,245.313 290.471,245.313 290.767 M211.134 291.996 C 210.060 292.522,208.961 293.253,208.692 293.621 C 208.146 294.369,207.960 354.482,208.502 355.334 C 208.660 355.582,208.742 341.949,208.685 325.037 L 208.580 294.290 209.466 293.463 C 209.953 293.008,211.230 292.281,212.305 291.847 C 213.379 291.413,213.994 291.054,213.672 291.049 C 213.350 291.044,212.207 291.470,211.134 291.996 M295.786 293.973 C 294.022 295.384,292.578 296.627,292.578 296.733 C 292.578 296.840,293.589 296.127,294.824 295.150 C 298.293 292.407,299.433 291.436,299.204 291.420 C 299.088 291.413,297.550 292.561,295.786 293.973 M284.570 302.789 C 280.488 306.027,276.566 309.127,275.854 309.678 C 275.142 310.228,273.911 310.804,273.119 310.958 C 271.682 311.238,271.682 311.238,272.916 311.283 C 274.247 311.332,274.824 310.934,284.770 303.125 C 290.110 298.932,292.535 296.897,292.188 296.899 C 292.080 296.900,288.652 299.550,284.570 302.789 M256.250 299.293 C 257.023 300.050,270.338 310.308,271.094 310.727 C 272.337 311.417,270.331 309.796,262.012 303.389 C 256.749 299.335,255.092 298.157,256.250 299.293 M294.531 303.906 C 293.994 304.326,293.747 304.674,293.982 304.679 C 294.218 304.684,294.728 304.336,295.117 303.906 C 296.008 302.922,295.789 302.922,294.531 303.906 M249.092 309.227 C 247.410 310.852,246.092 312.235,246.162 312.302 C 246.232 312.368,247.750 311.034,249.535 309.336 C 251.320 307.639,252.638 306.255,252.465 306.262 C 252.291 306.268,250.773 307.603,249.092 309.227 M294.515 307.934 C 295.473 308.941,296.309 309.766,296.374 309.766 C 296.727 309.766,295.401 308.243,294.183 307.250 C 292.945 306.241,292.985 306.324,294.515 307.934 M259.199 310.491 C 269.278 319.591,273.830 320.447,281.261 314.640 C 283.030 313.258,284.674 312.239,284.914 312.376 C 285.155 312.513,285.218 312.478,285.055 312.299 C 284.892 312.119,285.156 311.521,285.641 310.969 C 286.639 309.836,286.875 309.664,281.654 313.864 C 274.430 319.675,271.203 319.573,263.306 313.282 C 261.148 311.563,259.258 310.156,259.105 310.156 C 258.953 310.156,258.995 310.307,259.199 310.491 M297.070 310.416 C 297.285 310.612,299.131 312.343,301.172 314.263 L 304.883 317.755 301.563 314.319 C 299.736 312.430,297.891 310.699,297.461 310.472 C 297.031 310.246,296.855 310.221,297.070 310.416 M256.445 312.003 C 252.697 315.480,246.592 321.483,246.820 321.468 C 247.128 321.447,258.476 310.575,258.203 310.562 C 258.096 310.558,257.305 311.206,256.445 312.003 M287.915 311.133 C 288.224 311.563,288.614 312.016,288.781 312.140 C 288.949 312.264,291.146 314.378,293.664 316.838 C 298.315 321.382,310.460 332.837,313.684 335.721 C 317.006 338.694,309.194 331.055,302.539 324.823 C 298.887 321.403,293.976 316.748,291.626 314.478 C 289.276 312.209,287.607 310.703,287.915 311.133 M239.063 318.606 C 235.518 321.948,232.453 324.973,232.252 325.329 C 232.052 325.685,234.996 323.000,238.795 319.363 C 244.985 313.436,245.954 312.462,245.605 312.515 C 245.552 312.523,242.607 315.264,239.063 318.606 M305.688 318.348 C 305.866 318.664,308.131 320.949,310.721 323.426 C 313.311 325.902,316.203 328.679,317.148 329.596 C 318.093 330.513,318.934 331.196,319.016 331.114 C 319.099 331.032,317.710 329.592,315.931 327.915 C 314.151 326.238,312.754 324.676,312.826 324.445 C 312.897 324.213,312.818 324.161,312.650 324.329 C 312.482 324.497,310.774 323.090,308.854 321.204 C 306.934 319.317,305.509 318.032,305.688 318.348 M238.867 328.550 C 231.727 335.297,228.892 338.100,230.236 337.085 C 230.645 336.776,231.084 336.567,231.212 336.621 C 231.340 336.675,231.446 336.587,231.447 336.426 C 231.449 336.204,241.126 326.927,246.080 322.398 C 246.394 322.110,246.482 321.882,246.275 321.891 C 246.068 321.900,242.734 324.897,238.867 328.550 M228.797 328.380 C 227.340 329.802,226.207 331.025,226.279 331.097 C 226.351 331.169,227.626 330.002,229.113 328.505 C 230.599 327.007,231.732 325.784,231.630 325.788 C 231.528 325.792,230.253 326.959,228.797 328.380 M327.771 334.961 C 327.574 337.817,324.027 342.138,320.508 343.809 C 319.219 344.421,318.403 344.921,318.695 344.922 C 321.929 344.923,328.718 337.573,328.000 334.847 C 327.857 334.302,327.815 334.323,327.771 334.961 M254.199 338.184 C 265.425 338.241,283.794 338.241,295.020 338.184 C 306.245 338.126,297.061 338.079,274.609 338.079 C 252.158 338.079,242.974 338.126,254.199 338.184 M316.113 345.191 C 316.489 345.289,317.104 345.289,317.480 345.191 C 317.856 345.093,317.549 345.013,316.797 345.013 C 316.045 345.013,315.737 345.093,316.113 345.191 M267.676 345.931 C 266.978 346.237,266.406 346.570,266.406 346.671 C 266.406 346.773,266.890 346.640,267.480 346.377 C 268.272 346.024,274.719 345.845,291.992 345.697 L 315.430 345.496 292.188 345.436 C 272.859 345.386,268.732 345.470,267.676 345.931 M261.133 348.814 C 259.844 349.429,258.965 349.935,259.180 349.937 C 259.700 349.941,264.369 347.719,263.867 347.705 C 263.652 347.700,262.422 348.198,261.133 348.814 M254.939 351.028 C 253.896 351.348,253.130 351.697,253.236 351.804 C 253.438 352.006,257.422 350.804,257.422 350.541 C 257.422 350.312,257.002 350.394,254.939 351.028 M249.023 352.941 C 248.164 353.224,247.813 353.456,248.242 353.456 C 248.672 353.456,249.639 353.219,250.391 352.930 C 252.144 352.255,251.079 352.263,249.023 352.941 M245.635 353.714 C 245.526 353.823,243.432 354.333,240.980 354.847 C 238.529 355.361,236.830 355.799,237.206 355.820 C 238.054 355.869,246.900 354.012,247.187 353.725 C 247.302 353.610,247.044 353.516,246.615 353.516 C 246.185 353.516,245.744 353.605,245.635 353.714 M209.687 356.681 C 210.086 357.111,211.863 357.233,218.085 357.258 L 225.977 357.289 218.164 357.062 C 213.867 356.938,210.088 356.678,209.766 356.486 C 209.279 356.195,209.266 356.228,209.687 356.681 M231.353 356.530 C 231.947 356.620,232.826 356.618,233.306 356.525 C 233.787 356.432,233.301 356.359,232.227 356.362 C 231.152 356.365,230.759 356.441,231.353 356.530 M227.051 356.920 C 227.642 357.010,228.608 357.010,229.199 356.920 C 229.790 356.831,229.307 356.758,228.125 356.758 C 226.943 356.758,226.460 356.831,227.051 356.920 " stroke="none" fill="#090729" fill-rule="evenodd"></path><path id="path2" d="M201.469 42.464 C 201.955 42.557,202.658 42.554,203.032 42.456 C 203.405 42.358,203.008 42.282,202.148 42.286 C 201.289 42.290,200.983 42.370,201.469 42.464 M205.176 42.472 C 205.981 42.556,207.300 42.556,208.105 42.472 C 208.911 42.388,208.252 42.319,206.641 42.319 C 205.029 42.319,204.370 42.388,205.176 42.472 M211.241 42.474 C 212.160 42.557,213.566 42.555,214.366 42.471 C 215.166 42.388,214.414 42.320,212.695 42.321 C 210.977 42.323,210.322 42.392,211.241 42.474 M218.277 42.477 C 219.628 42.554,221.738 42.553,222.965 42.476 C 224.191 42.398,223.086 42.336,220.508 42.337 C 217.930 42.337,216.926 42.401,218.277 42.477 M231.568 42.480 C 235.072 42.545,240.697 42.545,244.068 42.480 C 247.438 42.415,244.570 42.362,237.695 42.362 C 230.820 42.362,228.063 42.415,231.568 42.480 M251.079 42.464 C 251.565 42.557,252.268 42.554,252.641 42.456 C 253.015 42.358,252.617 42.282,251.758 42.286 C 250.898 42.290,250.593 42.370,251.079 42.464 M257.520 42.457 C 257.896 42.555,258.511 42.555,258.887 42.457 C 259.263 42.359,258.955 42.278,258.203 42.278 C 257.451 42.278,257.144 42.359,257.520 42.457 M260.454 42.464 C 260.940 42.557,261.643 42.554,262.016 42.456 C 262.390 42.358,261.992 42.282,261.133 42.286 C 260.273 42.290,259.968 42.370,260.454 42.464 M189.362 42.861 C 190.065 42.948,191.119 42.946,191.706 42.857 C 192.293 42.768,191.719 42.697,190.430 42.699 C 189.141 42.701,188.660 42.774,189.362 42.861 M268.893 86.914 C 268.894 89.063,268.959 89.892,269.038 88.756 C 269.118 87.621,269.117 85.863,269.037 84.850 C 268.956 83.837,268.892 84.766,268.893 86.914 M192.871 101.057 C 193.354 101.150,194.146 101.150,194.629 101.057 C 195.112 100.964,194.717 100.888,193.750 100.888 C 192.783 100.888,192.388 100.964,192.871 101.057 M156.036 117.676 L 154.492 119.336 156.152 117.792 C 157.696 116.356,157.992 116.016,157.696 116.016 C 157.633 116.016,156.886 116.763,156.036 117.676 M140.737 160.742 C 140.740 161.816,140.816 162.209,140.905 161.616 C 140.995 161.022,140.993 160.143,140.900 159.663 C 140.807 159.182,140.734 159.668,140.737 160.742 M213.379 161.988 C 213.755 162.086,214.370 162.086,214.746 161.988 C 215.122 161.890,214.814 161.809,214.063 161.809 C 213.311 161.809,213.003 161.890,213.379 161.988 M219.835 162.005 C 220.753 162.088,222.160 162.087,222.960 162.003 C 223.760 161.919,223.008 161.851,221.289 161.853 C 219.570 161.854,218.916 161.923,219.835 162.005 M225.488 161.988 C 225.864 162.086,226.479 162.086,226.855 161.988 C 227.231 161.890,226.924 161.809,226.172 161.809 C 225.420 161.809,225.112 161.890,225.488 161.988 M228.813 161.995 C 229.299 162.088,230.002 162.085,230.376 161.987 C 230.749 161.889,230.352 161.813,229.492 161.817 C 228.633 161.822,228.327 161.902,228.813 161.995 M231.738 161.988 C 232.114 162.086,232.729 162.086,233.105 161.988 C 233.481 161.890,233.174 161.809,232.422 161.809 C 231.670 161.809,231.362 161.890,231.738 161.988 M234.863 161.988 C 235.239 162.086,235.854 162.086,236.230 161.988 C 236.606 161.890,236.299 161.809,235.547 161.809 C 234.795 161.809,234.487 161.890,234.863 161.988 M238.188 161.995 C 238.674 162.088,239.377 162.085,239.751 161.987 C 240.124 161.889,239.727 161.813,238.867 161.817 C 238.008 161.822,237.702 161.902,238.188 161.995 M241.313 161.995 C 241.799 162.088,242.502 162.085,242.876 161.987 C 243.249 161.889,242.852 161.813,241.992 161.817 C 241.133 161.822,240.827 161.902,241.313 161.995 M248.145 162.003 C 248.950 162.088,250.269 162.088,251.074 162.003 C 251.880 161.919,251.221 161.850,249.609 161.850 C 247.998 161.850,247.339 161.919,248.145 162.003 M253.813 161.995 C 254.299 162.088,255.002 162.085,255.376 161.987 C 255.749 161.889,255.352 161.813,254.492 161.817 C 253.633 161.822,253.327 161.902,253.813 161.995 M257.725 162.005 C 258.644 162.088,260.050 162.087,260.850 162.003 C 261.650 161.919,260.898 161.851,259.180 161.853 C 257.461 161.854,256.806 161.923,257.725 162.005 M263.770 162.003 C 264.575 162.088,265.894 162.088,266.699 162.003 C 267.505 161.919,266.846 161.850,265.234 161.850 C 263.623 161.850,262.964 161.919,263.770 162.003 M269.438 161.995 C 269.924 162.088,270.627 162.085,271.001 161.987 C 271.374 161.889,270.977 161.813,270.117 161.817 C 269.258 161.822,268.952 161.902,269.438 161.995 M272.563 161.995 C 273.049 162.088,273.752 162.085,274.126 161.987 C 274.499 161.889,274.102 161.813,273.242 161.817 C 272.383 161.822,272.077 161.902,272.563 161.995 M291.113 161.988 C 291.489 162.086,292.104 162.086,292.480 161.988 C 292.856 161.890,292.549 161.809,291.797 161.809 C 291.045 161.809,290.737 161.890,291.113 161.988 M294.238 161.988 C 294.614 162.086,295.229 162.086,295.605 161.988 C 295.981 161.890,295.674 161.809,294.922 161.809 C 294.170 161.809,293.862 161.890,294.238 161.988 M300.688 161.995 C 301.174 162.088,301.877 162.085,302.251 161.987 C 302.624 161.889,302.227 161.813,301.367 161.817 C 300.508 161.822,300.202 161.902,300.688 161.995 M303.813 161.995 C 304.299 162.088,305.002 162.085,305.376 161.987 C 305.749 161.889,305.352 161.813,304.492 161.817 C 303.633 161.822,303.327 161.902,303.813 161.995 M306.738 161.988 C 307.114 162.086,307.729 162.086,308.105 161.988 C 308.481 161.890,308.174 161.809,307.422 161.809 C 306.670 161.809,306.362 161.890,306.738 161.988 M319.238 161.988 C 319.614 162.086,320.229 162.086,320.605 161.988 C 320.981 161.890,320.674 161.809,319.922 161.809 C 319.170 161.809,318.862 161.890,319.238 161.988 M207.998 192.383 C 207.998 207.852,208.046 214.123,208.105 206.319 C 208.165 198.515,208.164 185.859,208.105 178.194 C 208.046 170.529,207.998 176.914,207.998 192.383 M140.731 167.188 C 140.731 168.154,140.808 168.550,140.901 168.066 C 140.994 167.583,140.994 166.792,140.901 166.309 C 140.808 165.825,140.731 166.221,140.731 167.188 M325.099 173.633 C 325.103 174.492,325.183 174.798,325.276 174.312 C 325.370 173.826,325.366 173.123,325.268 172.749 C 325.171 172.376,325.094 172.773,325.099 173.633 M325.106 182.031 C 325.106 182.998,325.183 183.394,325.276 182.910 C 325.369 182.427,325.369 181.636,325.276 181.152 C 325.183 180.669,325.106 181.064,325.106 182.031 M325.099 185.352 C 325.103 186.211,325.183 186.517,325.276 186.031 C 325.370 185.545,325.366 184.842,325.268 184.468 C 325.171 184.095,325.094 184.492,325.099 185.352 M325.134 193.555 C 325.135 195.273,325.204 195.928,325.287 195.009 C 325.369 194.090,325.368 192.684,325.284 191.884 C 325.200 191.084,325.132 191.836,325.134 193.555 M325.151 204.688 C 325.151 207.373,325.213 208.472,325.289 207.129 C 325.365 205.786,325.365 203.589,325.289 202.246 C 325.213 200.903,325.151 202.002,325.151 204.688 M325.175 224.805 C 325.175 231.895,325.227 234.850,325.292 231.372 C 325.357 227.895,325.357 222.094,325.292 218.482 C 325.228 214.870,325.175 217.715,325.175 224.805 M214.160 222.926 C 214.536 223.024,215.151 223.024,215.527 222.926 C 215.903 222.827,215.596 222.747,214.844 222.747 C 214.092 222.747,213.784 222.827,214.160 222.926 M224.316 222.941 C 225.122 223.025,226.440 223.025,227.246 222.941 C 228.052 222.857,227.393 222.788,225.781 222.788 C 224.170 222.788,223.511 222.857,224.316 222.941 M254.778 226.563 C 254.778 227.314,254.859 227.622,254.957 227.246 C 255.055 226.870,255.055 226.255,254.957 225.879 C 254.859 225.503,254.778 225.811,254.778 226.563 M254.841 233.203 C 254.841 236.104,254.902 237.290,254.977 235.840 C 255.052 234.390,255.052 232.017,254.977 230.566 C 254.902 229.116,254.841 230.303,254.841 233.203 M325.158 243.945 C 325.159 247.383,325.218 248.737,325.291 246.954 C 325.363 245.171,325.363 242.359,325.290 240.704 C 325.217 239.049,325.158 240.508,325.158 243.945 M254.813 241.016 C 254.813 242.412,254.883 242.983,254.970 242.285 C 255.057 241.587,255.057 240.444,254.970 239.746 C 254.883 239.048,254.813 239.619,254.813 241.016 M325.125 255.469 C 325.125 256.865,325.196 257.437,325.283 256.738 C 325.369 256.040,325.369 254.897,325.283 254.199 C 325.196 253.501,325.125 254.072,325.125 255.469 M324.700 261.328 C 324.700 262.080,324.780 262.388,324.879 262.012 C 324.977 261.636,324.977 261.021,324.879 260.645 C 324.780 260.269,324.700 260.576,324.700 261.328 M233.301 262.792 C 236.040 262.859,240.522 262.859,243.262 262.792 C 246.001 262.725,243.760 262.670,238.281 262.670 C 232.803 262.670,230.562 262.725,233.301 262.792 M250.293 270.605 C 262.593 270.663,282.720 270.663,295.020 270.605 C 307.319 270.548,297.256 270.501,272.656 270.501 C 248.057 270.501,237.993 270.548,250.293 270.605 M328.701 303.906 C 328.701 320.342,328.750 327.065,328.808 318.848 C 328.867 310.630,328.867 297.183,328.808 288.965 C 328.750 280.747,328.701 287.471,328.701 303.906 M216.144 278.711 C 216.146 280.215,216.216 280.782,216.301 279.972 C 216.385 279.161,216.384 277.931,216.298 277.237 C 216.211 276.544,216.142 277.207,216.144 278.711 M216.122 283.203 C 216.122 284.170,216.198 284.565,216.291 284.082 C 216.384 283.599,216.384 282.808,216.291 282.324 C 216.198 281.841,216.122 282.236,216.122 283.203 M216.127 287.305 C 216.130 288.379,216.206 288.772,216.296 288.178 C 216.386 287.584,216.383 286.706,216.291 286.225 C 216.198 285.745,216.124 286.230,216.127 287.305 M224.317 291.602 C 224.322 292.461,224.402 292.767,224.495 292.281 C 224.588 291.795,224.585 291.092,224.487 290.718 C 224.389 290.345,224.313 290.742,224.317 291.602 M207.998 323.828 C 207.998 340.264,208.046 346.987,208.105 338.770 C 208.164 330.552,208.164 317.104,208.105 308.887 C 208.046 300.669,207.998 307.393,207.998 323.828 M251.151 306.934 L 249.805 308.398 251.270 307.052 C 252.633 305.799,252.914 305.469,252.616 305.469 C 252.550 305.469,251.891 306.128,251.151 306.934 M246.665 311.035 L 244.727 313.086 246.777 311.147 C 248.683 309.346,249.007 308.984,248.716 308.984 C 248.654 308.984,247.731 309.907,246.665 311.035 M298.031 310.645 C 300.035 312.780,299.870 312.666,299.870 311.914 C 299.870 311.592,299.778 311.420,299.667 311.531 C 299.555 311.643,298.749 311.072,297.876 310.262 C 296.344 308.841,296.349 308.854,298.031 310.645 M286.367 310.645 C 286.459 310.698,287.324 311.445,288.287 312.305 L 290.039 313.867 288.495 312.207 C 287.646 311.294,286.781 310.547,286.574 310.547 C 286.367 310.547,286.274 310.591,286.367 310.645 M253.504 315.527 L 250.977 318.164 253.613 315.636 C 255.063 314.246,256.250 313.059,256.250 313.000 C 256.250 312.712,255.852 313.078,253.504 315.527 M240.625 316.602 C 239.676 317.568,238.988 318.359,239.095 318.359 C 239.203 318.359,240.067 317.568,241.016 316.602 C 241.964 315.635,242.653 314.844,242.545 314.844 C 242.438 314.844,241.574 315.635,240.625 316.602 M304.688 316.992 C 305.416 317.744,306.101 318.359,306.208 318.359 C 306.315 318.359,305.807 317.744,305.078 316.992 C 304.349 316.240,303.665 315.625,303.558 315.625 C 303.450 315.625,303.959 316.240,304.688 316.992 M296.289 319.922 C 297.128 320.781,297.903 321.484,298.010 321.484 C 298.118 321.484,297.519 320.781,296.680 319.922 C 295.841 319.063,295.066 318.359,294.959 318.359 C 294.851 318.359,295.450 319.063,296.289 319.922 M233.190 323.730 L 231.055 325.977 233.301 323.841 C 235.387 321.858,235.726 321.484,235.436 321.484 C 235.375 321.484,234.364 322.495,233.190 323.730 M245.682 322.949 L 244.336 324.414 245.801 323.068 C 247.164 321.815,247.445 321.484,247.147 321.484 C 247.082 321.484,246.422 322.144,245.682 322.949 M314.063 325.903 C 314.063 325.971,314.634 326.542,315.332 327.173 L 316.602 328.320 315.454 327.051 C 314.385 325.867,314.063 325.602,314.063 325.903 M304.297 327.539 C 305.026 328.291,305.710 328.906,305.817 328.906 C 305.925 328.906,305.416 328.291,304.688 327.539 C 303.959 326.787,303.274 326.172,303.167 326.172 C 303.060 326.172,303.568 326.787,304.297 327.539 M239.049 329.199 L 236.914 331.445 239.160 329.310 C 241.247 327.327,241.585 326.953,241.295 326.953 C 241.234 326.953,240.223 327.964,239.049 329.199 M226.187 330.258 C 225.466 331.002,224.758 331.537,224.613 331.447 C 224.468 331.358,224.349 331.540,224.349 331.853 C 224.349 332.582,224.184 332.689,226.172 330.664 C 227.121 329.697,227.807 328.906,227.697 328.906 C 227.587 328.906,226.907 329.515,226.187 330.258 M309.375 332.153 C 309.375 332.221,309.946 332.792,310.645 333.423 L 311.914 334.570 310.767 333.301 C 309.697 332.117,309.375 331.852,309.375 332.153 M314.402 336.815 C 314.910 337.462,312.843 337.502,273.191 337.598 L 231.445 337.699 273.340 337.795 C 297.185 337.849,315.234 337.743,315.234 337.548 C 315.234 337.359,314.927 336.964,314.551 336.669 C 313.932 336.183,313.918 336.197,314.402 336.815 M280.203 345.996 C 286.181 346.057,295.849 346.057,301.688 345.996 C 307.527 345.935,302.637 345.885,290.820 345.885 C 279.004 345.886,274.226 345.935,280.203 345.996 M313.184 345.979 C 313.667 346.072,314.458 346.072,314.941 345.979 C 315.425 345.886,315.029 345.810,314.063 345.810 C 313.096 345.810,312.700 345.886,313.184 345.979 M214.551 357.713 C 216.431 357.784,219.507 357.784,221.387 357.713 C 223.267 357.641,221.729 357.583,217.969 357.583 C 214.209 357.583,212.671 357.641,214.551 357.713 " stroke="none" fill="#363477" fill-rule="evenodd"></path><path id="path3" d="M196.010 43.039 C 196.931 43.404,265.144 43.431,265.369 43.066 C 265.468 42.905,249.753 42.773,230.445 42.773 C 211.137 42.773,195.641 42.893,196.010 43.039 M187.109 43.352 C 187.109 43.571,187.666 43.750,188.346 43.750 C 189.769 43.750,189.717 43.579,188.184 43.212 C 187.546 43.059,187.109 43.116,187.109 43.352 M183.203 43.750 C 183.203 43.965,183.687 44.138,184.277 44.135 C 185.114 44.130,185.222 44.045,184.766 43.750 C 184.001 43.256,183.203 43.256,183.203 43.750 M109.936 79.785 L 108.789 81.055 110.059 79.907 C 111.242 78.838,111.508 78.516,111.206 78.516 C 111.139 78.516,110.567 79.087,109.936 79.785 M193.555 100.391 C 193.687 100.605,194.225 100.781,194.750 100.781 C 195.274 100.781,195.703 100.605,195.703 100.391 C 195.703 100.176,195.165 100.000,194.508 100.000 C 193.811 100.000,193.414 100.163,193.555 100.391 M78.906 140.820 C 78.906 141.143,79.082 141.406,79.297 141.406 C 79.512 141.406,79.688 141.143,79.688 140.820 C 79.688 140.498,79.512 140.234,79.297 140.234 C 79.082 140.234,78.906 140.498,78.906 140.820 M140.631 147.145 C 140.628 147.616,140.801 148.109,141.016 148.242 C 141.513 148.550,141.513 147.645,141.016 146.875 C 140.708 146.399,140.636 146.449,140.631 147.145 M77.762 149.684 C 77.814 151.414,78.457 152.319,78.488 150.707 C 78.503 149.914,78.340 149.156,78.125 149.023 C 77.905 148.888,77.746 149.177,77.762 149.684 M140.240 150.075 C 140.237 150.653,140.410 151.234,140.625 151.367 C 141.124 151.675,141.124 150.381,140.625 149.609 C 140.329 149.151,140.245 149.252,140.240 150.075 M77.539 220.627 C 77.539 257.192,77.671 287.109,77.832 287.109 C 78.185 287.109,78.139 156.941,77.786 155.295 C 77.650 154.663,77.539 184.062,77.539 220.627 M209.968 162.818 C 209.860 163.100,209.623 163.239,209.443 163.128 C 209.262 163.016,209.115 163.182,209.115 163.495 C 209.115 163.989,209.202 163.986,209.764 163.478 C 210.335 162.961,217.150 162.891,266.730 162.891 C 297.704 162.891,323.047 162.759,323.047 162.598 C 323.047 162.025,210.188 162.245,209.968 162.818 M214.556 222.155 C 215.150 222.245,216.029 222.243,216.509 222.150 C 216.990 222.057,216.504 221.984,215.430 221.987 C 214.355 221.990,213.962 222.066,214.556 222.155 M225.488 222.168 C 229.946 222.230,237.241 222.230,241.699 222.168 C 246.157 222.105,242.510 222.054,233.594 222.054 C 224.678 222.054,221.030 222.105,225.488 222.168 M255.603 230.273 C 255.604 231.992,255.673 232.647,255.755 231.728 C 255.838 230.809,255.837 229.403,255.753 228.603 C 255.669 227.803,255.601 228.555,255.603 230.273 M323.828 262.891 C 323.828 263.620,323.932 263.724,324.297 263.359 C 324.661 262.995,324.661 262.786,324.297 262.422 C 323.932 262.057,323.828 262.161,323.828 262.891 M227.529 263.266 C 227.667 263.489,228.239 263.672,228.799 263.672 C 230.024 263.672,229.882 263.485,228.385 263.125 C 227.659 262.951,227.365 262.999,227.529 263.266 M225.029 271.254 C 224.405 272.006,224.007 274.609,224.517 274.609 C 224.737 274.609,224.919 274.214,224.920 273.730 C 224.924 272.658,225.118 271.838,225.522 271.191 C 225.936 270.529,225.595 270.572,225.029 271.254 M327.734 275.846 C 327.734 279.259,327.932 279.200,328.278 275.684 C 328.446 273.970,328.397 273.047,328.136 273.047 C 327.898 273.047,327.734 274.190,327.734 275.846 M327.825 280.078 C 327.825 280.830,327.905 281.138,328.004 280.762 C 328.102 280.386,328.102 279.771,328.004 279.395 C 327.905 279.019,327.825 279.326,327.825 280.078 M320.556 283.125 C 320.397 283.383,320.350 283.594,320.453 283.594 C 320.555 283.594,320.917 283.700,321.257 283.831 C 321.603 283.964,321.875 283.867,321.875 283.612 C 321.875 283.362,321.714 283.256,321.518 283.378 C 321.321 283.499,321.090 283.386,321.003 283.127 C 320.881 282.761,320.782 282.760,320.556 283.125 M223.734 303.403 C 223.789 314.530,223.885 325.391,223.947 327.539 C 224.009 329.688,224.052 320.679,224.042 307.519 C 224.032 294.360,224.148 283.594,224.301 283.594 C 224.454 283.594,224.970 283.989,225.449 284.473 L 226.318 285.352 225.712 284.375 C 225.379 283.838,224.774 283.348,224.369 283.286 C 223.655 283.177,223.636 283.775,223.734 303.403 M321.289 308.594 C 321.289 321.914,321.421 332.813,321.582 332.813 C 321.743 332.813,321.875 321.914,321.875 308.594 C 321.875 295.273,321.743 284.375,321.582 284.375 C 321.421 284.375,321.289 295.273,321.289 308.594 M227.536 286.260 C 227.681 286.405,227.953 286.523,228.141 286.523 C 228.328 286.523,228.772 286.875,229.128 287.305 C 229.746 288.053,229.750 288.046,229.217 287.143 C 228.911 286.624,228.348 286.154,227.966 286.098 C 227.584 286.042,227.391 286.115,227.536 286.260 M327.825 304.297 C 327.825 305.049,327.905 305.356,328.004 304.980 C 328.102 304.604,328.102 303.989,328.004 303.613 C 327.905 303.237,327.825 303.545,327.825 304.297 M252.266 304.929 C 252.509 305.384,252.596 305.868,252.460 306.003 C 252.325 306.139,252.419 306.250,252.669 306.250 C 253.342 306.250,253.223 305.254,252.475 304.638 C 251.890 304.155,251.869 304.183,252.266 304.929 M292.957 305.101 C 292.385 306.168,292.596 306.306,293.443 305.418 C 293.811 305.032,293.952 304.617,293.755 304.495 C 293.559 304.374,293.200 304.647,292.957 305.101 M250.785 308.004 C 250.519 308.323,250.175 308.506,250.019 308.410 C 249.864 308.314,249.049 308.975,248.208 309.879 L 246.680 311.523 248.267 310.051 C 249.140 309.241,249.946 308.670,250.060 308.784 C 250.173 308.897,250.584 308.637,250.974 308.206 C 251.364 307.775,251.590 307.422,251.476 307.422 C 251.361 307.422,251.050 307.684,250.785 308.004 M296.180 309.367 C 296.445 309.793,296.926 310.242,297.248 310.366 C 297.570 310.489,297.411 310.141,296.895 309.592 C 295.771 308.395,295.524 308.318,296.180 309.367 M257.698 311.133 C 256.294 312.893,256.548 312.893,258.150 311.133 C 258.834 310.381,259.258 309.766,259.092 309.766 C 258.925 309.766,258.298 310.381,257.698 311.133 M300.000 313.477 C 301.167 314.658,302.210 315.625,302.317 315.625 C 302.424 315.625,301.558 314.658,300.391 313.477 C 299.224 312.295,298.181 311.328,298.074 311.328 C 297.966 311.328,298.833 312.295,300.000 313.477 M244.987 313.336 C 244.486 313.954,243.943 314.377,243.780 314.276 C 243.617 314.175,242.884 314.745,242.152 315.543 L 240.820 316.992 242.213 315.716 C 242.979 315.014,243.695 314.529,243.804 314.637 C 243.913 314.746,244.504 314.312,245.117 313.672 C 245.730 313.032,246.157 312.442,246.065 312.360 C 245.974 312.279,245.488 312.718,244.987 313.336 M290.612 314.162 C 292.550 316.199,293.993 317.404,292.443 315.691 C 292.086 315.298,291.883 314.858,291.991 314.714 C 292.099 314.571,292.067 314.545,291.919 314.656 C 291.772 314.768,290.937 314.198,290.064 313.389 C 289.191 312.580,289.437 312.928,290.612 314.162 M251.733 316.895 L 250.586 318.164 251.855 317.017 C 252.554 316.386,253.125 315.814,253.125 315.747 C 253.125 315.445,252.803 315.711,251.733 316.895 M304.294 317.090 C 305.012 318.003,305.664 318.750,305.743 318.750 C 306.092 318.750,305.054 317.296,304.069 316.406 C 303.120 315.549,303.148 315.633,304.294 317.090 M294.531 317.383 C 295.260 318.135,295.944 318.750,296.052 318.750 C 296.159 318.750,295.651 318.135,294.922 317.383 C 294.193 316.631,293.509 316.016,293.401 316.016 C 293.294 316.016,293.802 316.631,294.531 317.383 M238.880 319.127 C 238.270 319.764,237.651 320.210,237.504 320.119 C 237.357 320.029,236.549 320.694,235.708 321.598 L 234.180 323.242 235.767 321.769 C 236.640 320.959,237.443 320.385,237.551 320.494 C 237.660 320.603,238.342 320.079,239.068 319.330 C 239.794 318.581,240.298 317.969,240.189 317.969 C 240.079 317.969,239.491 318.490,238.880 319.127 M248.224 319.629 L 246.680 321.289 248.340 319.745 C 249.884 318.309,250.180 317.969,249.884 317.969 C 249.820 317.969,249.073 318.716,248.224 319.629 M311.654 323.955 C 312.123 324.454,312.418 324.981,312.308 325.127 C 312.199 325.272,312.227 325.302,312.371 325.194 C 312.514 325.087,312.998 325.302,313.445 325.673 C 313.892 326.044,313.563 325.605,312.714 324.697 C 311.864 323.789,311.087 323.047,310.985 323.047 C 310.884 323.047,311.185 323.455,311.654 323.955 M230.885 326.667 C 229.773 328.038,229.729 328.154,230.628 327.344 C 231.563 326.502,232.672 324.986,232.338 325.007 C 232.277 325.011,231.623 325.758,230.885 326.667 M227.514 329.395 L 226.367 330.664 227.637 329.517 C 228.335 328.886,228.906 328.314,228.906 328.247 C 228.906 327.945,228.584 328.211,227.514 329.395 M316.797 329.492 C 317.526 330.244,318.210 330.859,318.317 330.859 C 318.425 330.859,317.916 330.244,317.188 329.492 C 316.459 328.740,315.774 328.125,315.667 328.125 C 315.560 328.125,316.068 328.740,316.797 329.492 M237.280 330.566 L 236.133 331.836 237.402 330.689 C 238.101 330.058,238.672 329.486,238.672 329.419 C 238.672 329.117,238.350 329.383,237.280 330.566 M319.336 332.031 C 319.725 332.461,320.219 332.813,320.434 332.813 C 320.648 332.813,320.506 332.461,320.117 332.031 C 319.728 331.602,319.234 331.250,319.020 331.250 C 318.805 331.250,318.947 331.602,319.336 332.031 M224.410 332.428 C 224.275 332.647,224.001 332.724,223.801 332.601 C 223.601 332.477,223.438 332.562,223.438 332.789 C 223.438 333.387,224.180 333.297,224.860 332.617 C 225.183 332.295,225.268 332.031,225.051 332.031 C 224.833 332.031,224.545 332.210,224.410 332.428 M327.762 333.278 C 327.747 333.856,327.910 334.438,328.125 334.570 C 328.591 334.859,328.591 334.093,328.125 333.008 C 327.825 332.310,327.786 332.339,327.762 333.278 M312.067 334.482 C 312.367 334.863,312.707 335.080,312.823 334.964 C 312.939 334.847,313.661 335.326,314.427 336.028 L 315.820 337.305 314.480 335.846 C 313.743 335.043,313.056 334.470,312.953 334.573 C 312.851 334.675,312.487 334.541,312.145 334.274 C 311.593 333.843,311.584 333.867,312.067 334.482 M230.721 338.373 C 230.822 338.537,236.740 338.646,243.871 338.613 C 251.002 338.581,256.396 338.500,255.859 338.433 C 253.623 338.154,230.551 338.099,230.721 338.373 M260.449 338.564 C 261.147 338.650,262.290 338.650,262.988 338.564 C 263.687 338.477,263.115 338.406,261.719 338.406 C 260.322 338.406,259.751 338.477,260.449 338.564 M277.344 345.203 C 292.623 345.472,315.924 345.479,315.760 345.215 C 315.660 345.054,305.614 344.961,293.434 345.009 C 281.254 345.057,274.014 345.144,277.344 345.203 M221.126 356.783 C 221.216 356.861,222.695 357.019,224.414 357.134 C 226.222 357.255,227.210 357.206,226.758 357.019 C 226.009 356.709,220.791 356.490,221.126 356.783 " stroke="none" fill="#151441" fill-rule="evenodd"></path><path id="path4" d="M268.841 46.875 C 268.841 47.627,268.921 47.935,269.019 47.559 C 269.118 47.183,269.118 46.567,269.019 46.191 C 268.921 45.815,268.841 46.123,268.841 46.875 M138.574 58.228 C 137.339 58.866,136.328 59.475,136.328 59.582 C 136.328 59.689,137.383 59.244,138.672 58.594 C 139.961 57.943,141.016 57.325,141.016 57.221 C 141.016 56.961,141.088 56.931,138.574 58.228 M127.329 65.263 L 125.977 66.463 127.441 65.412 C 128.736 64.483,129.157 64.063,128.794 64.063 C 128.732 64.063,128.073 64.603,127.329 65.263 M120.888 70.147 L 118.945 71.935 120.996 70.281 C 122.836 68.798,123.279 68.359,122.939 68.359 C 122.879 68.359,121.956 69.164,120.888 70.147 M115.820 74.477 C 113.644 76.502,113.619 76.544,115.470 75.060 C 117.283 73.605,118.676 72.242,118.310 72.281 C 118.230 72.289,117.109 73.277,115.820 74.477 M110.916 79.199 L 109.570 80.664 111.035 79.318 C 111.841 78.578,112.500 77.918,112.500 77.853 C 112.500 77.555,112.169 77.836,110.916 79.199 M102.114 89.268 C 101.536 90.026,101.131 90.710,101.215 90.788 C 101.299 90.866,101.849 90.246,102.438 89.410 C 103.774 87.513,103.533 87.408,102.114 89.268 M199.707 100.670 C 200.298 100.760,201.265 100.760,201.855 100.670 C 202.446 100.581,201.963 100.508,200.781 100.508 C 199.600 100.508,199.116 100.581,199.707 100.670 M205.566 100.680 C 207.017 100.755,209.390 100.755,210.840 100.680 C 212.290 100.605,211.104 100.544,208.203 100.544 C 205.303 100.544,204.116 100.605,205.566 100.680 M224.148 100.683 C 228.943 100.745,236.677 100.745,241.335 100.683 C 245.993 100.621,242.070 100.570,232.617 100.570 C 223.164 100.570,219.353 100.621,224.148 100.683 M250.684 100.666 C 251.167 100.759,251.958 100.759,252.441 100.666 C 252.925 100.573,252.529 100.497,251.563 100.497 C 250.596 100.497,250.200 100.573,250.684 100.666 M257.316 100.673 C 258.009 100.759,259.239 100.760,260.050 100.676 C 260.860 100.591,260.293 100.521,258.789 100.519 C 257.285 100.517,256.622 100.586,257.316 100.673 M168.262 107.255 C 166.801 108.047,166.890 108.377,168.359 107.617 C 169.004 107.284,169.531 106.928,169.531 106.826 C 169.531 106.575,169.489 106.589,168.262 107.255 M162.305 111.167 L 161.133 112.174 162.402 111.334 C 163.101 110.872,163.672 110.418,163.672 110.325 C 163.672 110.033,163.506 110.134,162.305 111.167 M88.162 112.310 C 87.805 113.059,87.593 113.672,87.692 113.672 C 87.959 113.672,89.145 111.280,88.966 111.101 C 88.881 111.017,88.520 111.560,88.162 112.310 M158.546 114.093 L 156.836 115.685 158.691 114.205 C 159.712 113.391,160.547 112.675,160.547 112.613 C 160.547 112.311,160.120 112.627,158.546 114.093 M149.186 124.316 C 148.091 125.819,146.481 128.601,146.981 128.125 C 147.389 127.737,150.708 122.656,150.554 122.656 C 150.467 122.656,149.851 123.403,149.186 124.316 M139.982 152.930 C 139.981 154.863,140.047 155.704,140.129 154.797 C 140.211 153.890,140.212 152.308,140.131 151.281 C 140.051 150.254,139.984 150.996,139.982 152.930 M140.716 154.297 C 140.716 155.049,140.796 155.356,140.894 154.980 C 140.993 154.604,140.993 153.989,140.894 153.613 C 140.796 153.237,140.716 153.545,140.716 154.297 M139.972 163.867 C 139.974 165.371,140.044 165.938,140.129 165.128 C 140.213 164.318,140.212 163.087,140.126 162.394 C 140.039 161.700,139.970 162.363,139.972 163.867 M208.854 164.714 C 208.711 164.857,208.618 165.868,208.649 166.960 L 208.704 168.945 208.977 166.797 C 209.269 164.498,209.258 164.310,208.854 164.714 M325.131 167.969 C 325.131 169.580,325.200 170.239,325.285 169.434 C 325.369 168.628,325.369 167.310,325.285 166.504 C 325.200 165.698,325.131 166.357,325.131 167.969 M139.972 172.461 C 139.974 173.965,140.044 174.532,140.129 173.722 C 140.213 172.911,140.212 171.681,140.126 170.987 C 140.039 170.294,139.970 170.957,139.972 172.461 M140.716 171.094 C 140.716 171.846,140.796 172.153,140.894 171.777 C 140.993 171.401,140.993 170.786,140.894 170.410 C 140.796 170.034,140.716 170.342,140.716 171.094 M208.757 177.539 C 208.757 181.621,208.815 183.238,208.885 181.132 C 208.956 179.026,208.955 175.686,208.885 173.710 C 208.814 171.734,208.756 173.457,208.757 177.539 M140.716 177.344 C 140.716 178.096,140.796 178.403,140.894 178.027 C 140.993 177.651,140.993 177.036,140.894 176.660 C 140.796 176.284,140.716 176.592,140.716 177.344 M139.969 178.906 C 139.969 180.303,140.040 180.874,140.126 180.176 C 140.213 179.478,140.213 178.335,140.126 177.637 C 140.040 176.938,139.969 177.510,139.969 178.906 M140.742 182.422 C 140.742 183.604,140.815 184.087,140.905 183.496 C 140.994 182.905,140.994 181.938,140.905 181.348 C 140.815 180.757,140.742 181.240,140.742 182.422 M139.934 183.594 C 139.934 184.346,140.015 184.653,140.113 184.277 C 140.211 183.901,140.211 183.286,140.113 182.910 C 140.015 182.534,139.934 182.842,139.934 183.594 M140.797 195.898 C 140.798 202.129,140.852 204.623,140.917 201.441 C 140.983 198.259,140.983 193.161,140.917 190.113 C 140.851 187.064,140.797 189.668,140.797 195.898 M139.955 188.867 C 139.958 189.941,140.034 190.334,140.124 189.741 C 140.214 189.147,140.211 188.268,140.119 187.788 C 140.026 187.307,139.953 187.793,139.955 188.867 M208.692 189.648 C 208.697 190.508,208.777 190.813,208.870 190.327 C 208.963 189.842,208.960 189.138,208.862 188.765 C 208.764 188.392,208.688 188.789,208.692 189.648 M208.594 197.461 C 208.594 200.863,208.694 203.546,208.816 203.424 C 209.101 203.139,209.094 191.776,208.808 191.491 C 208.690 191.373,208.594 194.059,208.594 197.461 M139.955 193.945 C 139.958 195.020,140.034 195.413,140.124 194.819 C 140.214 194.225,140.211 193.346,140.119 192.866 C 140.026 192.385,139.953 192.871,139.955 193.945 M139.942 198.633 C 139.947 199.492,140.027 199.798,140.120 199.312 C 140.213 198.826,140.210 198.123,140.112 197.749 C 140.014 197.376,139.938 197.773,139.942 198.633 M208.684 211.328 C 208.684 212.080,208.765 212.388,208.863 212.012 C 208.961 211.636,208.961 211.021,208.863 210.645 C 208.765 210.269,208.684 210.576,208.684 211.328 M140.783 216.602 C 140.784 220.039,140.843 221.393,140.916 219.610 C 140.988 217.828,140.988 215.015,140.915 213.360 C 140.842 211.706,140.783 213.164,140.783 216.602 M139.969 213.281 C 139.969 214.678,140.040 215.249,140.126 214.551 C 140.213 213.853,140.213 212.710,140.126 212.012 C 140.040 211.313,139.969 211.885,139.969 213.281 M208.692 214.648 C 208.697 215.508,208.777 215.813,208.870 215.327 C 208.963 214.842,208.960 214.138,208.862 213.765 C 208.764 213.392,208.688 213.789,208.692 214.648 M140.759 225.977 C 140.760 227.695,140.829 228.350,140.912 227.431 C 140.994 226.512,140.993 225.106,140.909 224.306 C 140.825 223.506,140.757 224.258,140.759 225.977 M140.782 235.156 C 140.782 238.486,140.842 239.849,140.915 238.184 C 140.989 236.519,140.989 233.794,140.915 232.129 C 140.842 230.464,140.782 231.826,140.782 235.156 M139.934 230.859 C 139.934 231.611,140.015 231.919,140.113 231.543 C 140.211 231.167,140.211 230.552,140.113 230.176 C 140.015 229.800,139.934 230.107,139.934 230.859 M139.942 242.383 C 139.947 243.242,140.027 243.548,140.120 243.062 C 140.213 242.576,140.210 241.873,140.112 241.499 C 140.014 241.126,139.938 241.523,139.942 242.383 M140.716 242.578 C 140.716 243.330,140.796 243.638,140.894 243.262 C 140.993 242.886,140.993 242.271,140.894 241.895 C 140.796 241.519,140.716 241.826,140.716 242.578 M140.753 247.852 C 140.755 249.355,140.826 249.923,140.910 249.112 C 140.995 248.302,140.993 247.071,140.907 246.378 C 140.821 245.685,140.751 246.348,140.753 247.852 M140.803 267.969 C 140.803 276.670,140.855 280.229,140.918 275.879 C 140.980 271.528,140.980 264.409,140.918 260.059 C 140.855 255.708,140.803 259.268,140.803 267.969 M252.407 256.462 C 251.753 257.898,251.878 258.205,252.585 256.899 C 252.916 256.289,253.113 255.717,253.024 255.628 C 252.934 255.539,252.657 255.914,252.407 256.462 M139.934 257.031 C 139.934 257.783,140.015 258.091,140.113 257.715 C 140.211 257.339,140.211 256.724,140.113 256.348 C 140.015 255.972,139.934 256.279,139.934 257.031 M140.010 268.945 C 140.011 273.672,140.067 275.552,140.136 273.123 C 140.204 270.694,140.204 266.827,140.135 264.529 C 140.066 262.231,140.010 264.219,140.010 268.945 M220.291 267.480 L 218.945 268.945 220.410 267.599 C 221.774 266.346,222.055 266.016,221.756 266.016 C 221.691 266.016,221.032 266.675,220.291 267.480 M235.840 269.427 C 236.753 269.509,238.247 269.509,239.160 269.427 C 240.073 269.344,239.326 269.277,237.500 269.277 C 235.674 269.277,234.927 269.344,235.840 269.427 M248.340 269.427 C 249.253 269.509,250.747 269.509,251.660 269.427 C 252.573 269.344,251.826 269.277,250.000 269.277 C 248.174 269.277,247.427 269.344,248.340 269.427 M262.988 269.410 C 263.364 269.508,263.979 269.508,264.355 269.410 C 264.731 269.312,264.424 269.231,263.672 269.231 C 262.920 269.231,262.612 269.312,262.988 269.410 M139.994 282.422 C 139.994 285.107,140.057 286.206,140.133 284.863 C 140.209 283.521,140.209 281.323,140.133 279.980 C 140.057 278.638,139.994 279.736,139.994 282.422 M230.078 279.810 C 230.078 279.906,230.723 280.478,231.512 281.079 C 232.301 281.681,232.823 281.974,232.672 281.730 C 232.363 281.230,230.078 279.538,230.078 279.810 M216.925 284.570 C 216.927 286.074,216.997 286.642,217.082 285.831 C 217.167 285.021,217.165 283.790,217.079 283.097 C 216.993 282.403,216.923 283.066,216.925 284.570 M140.731 285.938 C 140.731 286.904,140.808 287.300,140.901 286.816 C 140.994 286.333,140.994 285.542,140.901 285.059 C 140.808 284.575,140.731 284.971,140.731 285.938 M223.159 286.133 C 223.162 287.207,223.237 287.600,223.327 287.006 C 223.417 286.413,223.415 285.534,223.322 285.053 C 223.229 284.573,223.156 285.059,223.159 286.133 M322.058 308.203 C 322.058 320.986,322.108 326.216,322.168 319.824 C 322.228 313.433,322.228 302.974,322.168 296.582 C 322.108 290.190,322.058 295.420,322.058 308.203 M313.763 287.902 C 313.062 288.540,312.633 289.063,312.811 289.063 C 312.989 289.063,313.640 288.535,314.258 287.891 C 315.694 286.392,315.416 286.399,313.763 287.902 M301.563 290.083 C 300.381 291.065,299.238 292.063,299.023 292.302 C 298.534 292.845,299.908 291.890,301.045 290.896 C 301.551 290.454,302.105 290.274,302.412 290.451 C 302.697 290.616,302.796 290.603,302.633 290.424 C 302.470 290.244,302.720 289.688,303.190 289.189 C 304.487 287.808,303.938 288.110,301.563 290.083 M110.254 288.941 C 110.630 289.039,111.245 289.039,111.621 288.941 C 111.997 288.843,111.689 288.763,110.938 288.763 C 110.186 288.763,109.878 288.843,110.254 288.941 M223.168 291.211 C 223.170 292.500,223.243 292.980,223.330 292.278 C 223.417 291.576,223.415 290.521,223.326 289.934 C 223.237 289.347,223.166 289.922,223.168 291.211 M223.217 303.906 C 223.217 309.600,223.272 311.929,223.339 309.082 C 223.406 306.235,223.406 301.577,223.339 298.730 C 223.272 295.884,223.217 298.213,223.217 303.906 M239.130 294.418 C 239.360 294.695,239.747 294.919,239.989 294.916 C 240.247 294.912,240.209 294.770,239.897 294.573 C 239.448 294.288,239.448 294.204,239.897 294.032 C 240.190 293.921,240.043 293.848,239.571 293.871 C 238.915 293.903,238.811 294.033,239.130 294.418 M208.838 295.361 C 208.542 296.840,208.507 319.748,208.801 319.454 C 208.969 319.286,209.297 294.140,209.131 294.140 C 209.104 294.141,208.972 294.690,208.838 295.361 M250.000 295.064 C 250.000 295.171,250.527 295.635,251.172 296.094 C 251.816 296.553,252.344 296.840,252.344 296.733 C 252.344 296.625,251.816 296.162,251.172 295.703 C 250.527 295.244,250.000 294.957,250.000 295.064 M243.555 297.822 C 244.199 298.381,245.078 299.028,245.508 299.259 C 245.938 299.490,245.762 299.221,245.117 298.662 C 244.473 298.103,243.594 297.457,243.164 297.226 C 242.734 296.995,242.910 297.263,243.555 297.822 M298.948 299.833 L 297.852 300.838 299.121 299.955 C 299.819 299.469,300.391 299.017,300.391 298.950 C 300.391 298.642,299.959 298.906,298.948 299.833 M261.719 304.022 C 261.719 304.121,262.546 304.880,263.556 305.708 C 264.567 306.536,265.267 307.010,265.113 306.760 C 264.785 306.229,261.719 303.755,261.719 304.022 M298.828 312.695 C 299.557 313.447,300.241 314.063,300.349 314.063 C 300.456 314.063,299.948 313.447,299.219 312.695 C 298.490 311.943,297.806 311.328,297.698 311.328 C 297.591 311.328,298.099 311.943,298.828 312.695 M253.516 314.129 C 252.492 315.059,252.247 315.396,252.930 314.936 C 254.008 314.210,255.799 312.478,255.432 312.517 C 255.345 312.526,254.482 313.252,253.516 314.129 M244.141 314.648 C 243.192 315.615,242.503 316.406,242.611 316.406 C 242.718 316.406,243.582 315.615,244.531 314.648 C 245.480 313.682,246.169 312.891,246.061 312.891 C 245.954 312.891,245.089 313.682,244.141 314.648 M293.750 316.211 C 295.134 317.607,296.354 318.750,296.462 318.750 C 296.569 318.750,295.525 317.607,294.141 316.211 C 292.757 314.814,291.536 313.672,291.429 313.672 C 291.321 313.672,292.366 314.814,293.750 316.211 M248.224 319.238 L 246.680 320.898 248.340 319.354 C 249.253 318.505,250.000 317.758,250.000 317.694 C 250.000 317.399,249.660 317.694,248.224 319.238 M272.363 318.629 C 272.739 318.727,273.354 318.727,273.730 318.629 C 274.106 318.530,273.799 318.450,273.047 318.450 C 272.295 318.450,271.987 318.530,272.363 318.629 M248.416 320.215 L 247.070 321.680 248.535 320.334 C 249.899 319.081,250.180 318.750,249.881 318.750 C 249.816 318.750,249.157 319.409,248.416 320.215 M238.061 320.410 L 236.914 321.680 238.184 320.532 C 238.882 319.901,239.453 319.330,239.453 319.263 C 239.453 318.961,239.131 319.227,238.061 320.410 M208.594 337.109 C 208.594 346.634,208.680 354.341,208.786 354.235 C 209.047 353.974,209.062 320.260,208.801 319.999 C 208.687 319.885,208.594 327.585,208.594 337.109 M308.594 322.070 C 309.761 323.252,310.803 324.219,310.911 324.219 C 311.018 324.219,310.151 323.252,308.984 322.070 C 307.817 320.889,306.775 319.922,306.667 319.922 C 306.560 319.922,307.427 320.889,308.594 322.070 M223.175 324.414 C 223.177 325.918,223.247 326.485,223.332 325.675 C 223.417 324.864,223.415 323.634,223.329 322.941 C 223.243 322.247,223.173 322.910,223.175 324.414 M242.358 324.707 L 241.211 325.977 242.480 324.829 C 243.179 324.198,243.750 323.627,243.750 323.560 C 243.750 323.258,243.428 323.524,242.358 324.707 M307.813 329.492 C 308.541 330.244,309.226 330.859,309.333 330.859 C 309.440 330.859,308.932 330.244,308.203 329.492 C 307.474 328.740,306.790 328.125,306.683 328.125 C 306.575 328.125,307.084 328.740,307.813 329.492 M316.406 328.247 C 316.406 328.314,316.978 328.886,317.676 329.517 L 318.945 330.664 317.798 329.395 C 316.729 328.211,316.406 327.945,316.406 328.247 M234.155 332.520 L 233.008 333.789 234.277 332.642 C 234.976 332.011,235.547 331.439,235.547 331.372 C 235.547 331.070,235.225 331.336,234.155 332.520 M325.678 338.772 L 324.989 340.039 325.776 339.117 C 326.445 338.332,326.803 337.494,326.465 337.502 C 326.411 337.504,326.057 338.075,325.678 338.772 M234.082 338.941 C 234.458 339.039,235.073 339.039,235.449 338.941 C 235.825 338.843,235.518 338.763,234.766 338.763 C 234.014 338.763,233.706 338.843,234.082 338.941 M242.285 338.941 C 242.661 339.039,243.276 339.039,243.652 338.941 C 244.028 338.843,243.721 338.763,242.969 338.763 C 242.217 338.763,241.909 338.843,242.285 338.941 M321.892 342.431 C 320.055 343.736,319.893 343.963,321.318 343.239 C 321.978 342.904,322.746 342.354,323.025 342.018 C 323.691 341.216,323.513 341.281,321.892 342.431 M282.742 344.824 C 288.397 344.885,297.538 344.885,303.055 344.824 C 308.572 344.763,303.945 344.713,292.773 344.713 C 281.602 344.713,277.088 344.763,282.742 344.824 M313.770 344.801 C 314.146 344.899,314.761 344.899,315.137 344.801 C 315.513 344.702,315.205 344.622,314.453 344.622 C 313.701 344.622,313.394 344.702,313.770 344.801 " stroke="none" fill="#342d6a" fill-rule="evenodd"></path></g></svg>